<?xml version="1.0" encoding="UTF-8" standalone="no"?>
<!-- Created with Inkscape (http://www.inkscape.org/) -->

<svg
   xmlns:dc="http://purl.org/dc/elements/1.1/"
   xmlns:cc="http://creativecommons.org/ns#"
   xmlns:rdf="http://www.w3.org/1999/02/22-rdf-syntax-ns#"
   xmlns:svg="http://www.w3.org/2000/svg"
   xmlns="http://www.w3.org/2000/svg"
   xmlns:sodipodi="http://sodipodi.sourceforge.net/DTD/sodipodi-0.dtd"
   xmlns:inkscape="http://www.inkscape.org/namespaces/inkscape"
   width="485"
   height="150"
   id="svg3044"
   version="1.1"
   inkscape:version="0.48.4 r9939"
   sodipodi:docname="stickers1.svg"
   inkscape:export-filename="/home/matael/workspace/hackerspace/legal/logo/stickers2.png"
   inkscape:export-xdpi="90"
   inkscape:export-ydpi="90">
  <sodipodi:namedview
     id="base"
     pagecolor="#ffffff"
     bordercolor="#666666"
     borderopacity="1.0"
     inkscape:pageopacity="0.0"
     inkscape:pageshadow="2"
     inkscape:zoom="1.8413936"
     inkscape:cx="235.98808"
     inkscape:cy="-32.010513"
     inkscape:document-units="px"
     inkscape:current-layer="g4342"
     showgrid="false"
     showguides="true"
     inkscape:guide-bbox="true"
     inkscape:snap-global="false"
     inkscape:window-width="1400"
     inkscape:window-height="1050"
     inkscape:window-x="0"
     inkscape:window-y="25"
     inkscape:window-maximized="0">
    <sodipodi:guide
       id="guide3169"
       position="-132.14286,9.2857143"
       orientation="0,1" />
    <sodipodi:guide
       id="guide3171"
       position="-45,123.57143"
       orientation="0,1" />
    <sodipodi:guide
       id="guide3177"
       position="151.27034,115.15739"
       orientation="1,0" />
    <sodipodi:guide
       id="guide3179"
       position="-230.71429,140"
       orientation="0,1" />
    <sodipodi:guide
       id="guide3287"
       position="481.59023,-4.5456865"
       orientation="1,0" />
    <sodipodi:guide
       orientation="1,0"
       position="337.54157,-26.880444"
       id="guide3131" />
  </sodipodi:namedview>
  <defs
     id="defs3046" />
  <metadata
     id="metadata3049">
    <rdf:RDF>
      <cc:Work
         rdf:about="">
        <dc:format>image/svg+xml</dc:format>
        <dc:type
           rdf:resource="http://purl.org/dc/dcmitype/StillImage" />
        <dc:title></dc:title>
      </cc:Work>
    </rdf:RDF>
  </metadata>
  <g
     transform="translate(0,-902.36218)"
     id="layer1"
     inkscape:groupmode="layer"
     inkscape:label="Calque 1">
    <g
       id="g4339"
       transform="translate(334,0)">
      <path
         inkscape:connector-curvature="0"
         id="path4337"
         d="m 12.433063,1024.7809 0,-18.5184 18.518397,0 18.518398,0 0,18.5184 0,18.5184 -18.518398,0 -18.518397,0 0,-18.5184 z m 31.2987,0 0,-12.7803 -12.780303,0 -12.780302,0 0,12.7803 0,12.7803 12.780302,0 12.780303,0 0,-12.7803 z m -20.8658,0 0,-8.0855 8.085497,0 8.085498,0 0,8.0855 0,8.0855 -8.085498,0 -8.085497,0 0,-8.0855 z m 31.2987,15.6494 0,-2.8691 2.608225,0 2.608225,0 0,-2.3474 0,-2.3474 -2.608225,0 -2.608225,0 0,-2.869 0,-2.8691 2.608225,0 2.608225,0 0,-5.2164 0,-5.2165 2.608225,0 2.608225,0 0,-4.9556 0,-4.9556 -2.347403,0 -2.347402,0 0,2.6082 0,2.6082 -2.869048,0 -2.869047,0 0,-5.2164 0,-5.2165 -5.21645,0 -5.21645,0 0,-2.86904 0,-2.86905 7.824675,0 7.824675,0 0,-2.3474 0,-2.3474 -2.608225,0 -2.608225,0 0,-2.60823 0,-2.60822 -2.347403,0 -2.347402,0 0,2.60822 0,2.60823 -2.869048,0 -2.869047,0 0,-2.86905 0,-2.86905 2.608225,0 2.608225,0 0,-2.3474 0,-2.34741 -4.955628,0 -4.955627,0 0,2.60823 0,2.60823 -2.608225,0 -2.608225,0 0,2.3474 0,2.3474 2.608225,0 2.608225,0 0,5.47727 0,5.47727 -2.869048,0 -2.869047,0 0,-5.21644 0,-5.21645 -4.955628,0 -4.955627,0 0,2.3474 0,2.3474 2.608225,0 2.608225,0 0,2.86905 0,2.86904 -5.477273,0 -5.477272,0 0,-10.69372 0,-10.69372 2.608225,0 2.608225,0 0,-2.60822 0,-2.60823 2.869047,0 2.869048,0 0,2.60823 0,2.60822 2.347402,0 2.347403,0 0,-4.95563 0,-4.95562 -7.824675,0 -7.824675,0 0,-5.21645 0,-5.21645 -2.608225,0 -2.608225,0 0,-2.86905 0,-2.86905 2.869047,0 2.869048,0 0,2.60823 0,2.60822 2.347402,0 2.347403,0 0,-2.60822 0,-2.60823 2.869047,0 2.869048,0 0,2.60823 0,2.60822 7.563852,0 7.563853,0 0,-2.60822 0,-2.60823 5.477272,0 5.477273,0 0,2.86905 0,2.86905 -5.21645,0 -5.21645,0 0,2.3474 0,2.3474 10.172077,0 10.172078,0 0,-2.3474 0,-2.3474 -2.608225,0 -2.608225,0 0,-5.21645 0,-5.21645 -2.608225,0 -2.608225,0 0,-5.47728 0,-5.47727 2.608225,0 2.608225,0 0,-4.95563 0,-4.95562 -2.608225,0 -2.608225,0 0,-2.86905 0,-2.86905 2.608225,0 2.608225,0 0,-2.3474 0,-2.3474 -2.608225,0 -2.608225,0 0,-2.86905 0,-2.86905 2.869047,0 2.869048,0 0,2.60823 0,2.60822 2.347402,0 2.347403,0 0,-2.60822 0,-2.60823 8.085497,0 8.085498,0 0,2.60823 0,2.60822 4.955627,0 4.955628,0 0,-2.60822 0,-2.60823 5.477272,0 5.477275,0 0,8.0855 0,8.0855 -5.216452,0 -5.21645,0 0,2.3474 0,2.3474 2.608225,0 2.608225,0 0,5.21645 0,5.21645 2.608225,0 2.608227,0 0,7.82468 0,7.82467 4.95563,0 4.95562,0 0,-2.60822 0,-2.60823 2.86905,0 2.86905,0 0,5.21645 0,5.21645 2.3474,0 2.3474,0 0,-2.60823 0,-2.60822 2.60823,0 2.60822,0 0,-2.60822 0,-2.60823 2.86905,0 2.86905,0 0,2.60823 0,2.60822 2.3474,0 2.3474,0 0,-2.60822 0,-2.60823 2.86905,0 2.86905,0 0,8.0855 0,8.0855 -2.86905,0 -2.86905,0 0,-2.60823 0,-2.60822 -2.3474,0 -2.3474,0 0,2.60822 0,2.60823 -2.60823,0 -2.60822,0 0,2.60822 0,2.60822 -2.86905,0 -2.86905,0 0,-2.60822 0,-2.60822 -2.60822,0 -2.60823,0 0,-2.60823 0,-2.60822 -2.3474,0 -2.3474,0 0,2.60822 0,2.60823 -2.60823,0 -2.60822,0 0,2.3474 0,2.3474 5.21645,0 5.21645,0 0,5.21645 0,5.21645 7.56385,0 7.56385,0 0,-2.60822 0,-2.60823 2.60823,0 2.60822,0 0,-2.60822 0,-2.60823 2.86905,0 2.86905,0 0,8.0855 0,8.0855 -2.86905,0 -2.86905,0 0,-2.60823 0,-2.60822 -2.3474,0 -2.3474,0 0,2.60822 0,2.60823 -5.21645,0 -5.21645,0 0,7.56385 0,7.56384 2.3474,0 2.3474,0 0,-2.6082 0,-2.6082 2.60823,0 2.60822,0 0,-2.60826 0,-2.60823 2.86905,0 2.86905,0 0,2.60823 0,2.60826 2.60822,0 2.60823,0 0,8.0855 0,8.0855 -5.47727,0 -5.47728,0 0,-2.8691 0,-2.869 2.60823,0 2.60822,0 0,-4.9557 0,-4.9556 -2.3474,0 -2.3474,0 0,2.6082 0,2.6083 -2.60823,0 -2.60822,0 0,2.6082 0,2.6082 -2.60823,0 -2.60822,0 0,2.3474 0,2.3474 2.60822,0 2.60823,0 0,2.6082 0,2.6083 2.60822,0 2.60823,0 0,2.6082 0,2.6082 5.21645,0 5.21645,0 0,2.8691 0,2.869 -5.47727,0 -5.47728,0 0,-2.6082 0,-2.6082 -4.95562,0 -4.95563,0 0,4.9556 0,4.9556 2.60822,0 2.60823,0 0,2.8691 0,2.869 -2.86905,0 -2.86905,0 0,-2.6082 0,-2.6082 -7.56385,0 -7.56385,0 0,2.6082 0,2.6082 -5.47727,0 -5.477277,0 0,-5.4773 0,-5.4772 2.608225,0 2.608222,0 0,-2.3474 0,-2.3474 -4.955625,0 -4.955627,0 0,7.8246 0,7.8247 -5.477273,0 -5.477272,0 0,-2.6082 0,-2.6082 -10.172078,0 -10.172077,0 0,2.6082 0,2.6082 -2.869048,0 -2.869047,0 0,-2.869 z m 31.2987,-5.2165 0,-2.3474 -2.347403,0 -2.347402,0 0,2.3474 0,2.3474 2.347402,0 2.347403,0 0,-2.3474 z m -20.8658,-5.2164 0,-2.3474 -2.347403,0 -2.347402,0 0,2.3474 0,2.3474 2.347402,0 2.347403,0 0,-2.3474 z m 10.4329,-2.6083 0,-4.9556 -4.955628,0 -4.955627,0 0,2.3474 0,2.3474 2.608225,0 2.608225,0 0,2.6082 0,2.6083 2.347402,0 2.347403,0 0,-4.9557 z m 41.731597,0 0,-4.9556 -7.56385,0 -7.56385,0 0,2.3474 0,2.3474 2.60822,0 2.60823,0 0,2.6082 0,2.6083 4.95563,0 4.95562,0 0,-4.9557 z m -26.082247,-8.0855 0,-7.8246 2.608225,0 2.608225,0 0,-2.3474 0,-2.3474 -7.824675,0 -7.824675,0 0,-5.2165 0,-5.21644 -4.955628,0 -4.955627,0 0,4.95564 0,4.9556 2.608225,0 2.608225,0 0,2.8691 0,2.869 -2.608225,0 -2.608225,0 0,2.3474 0,2.3474 4.955627,0 4.955628,0 0,-2.6082 0,-2.6082 2.869047,0 2.869048,0 0,5.4772 0,5.4773 -2.608225,0 -2.608225,0 0,2.3474 0,2.3474 4.955627,0 4.955628,0 0,-7.8247 z m 26.082247,-10.172 0,-7.5639 -7.56385,0 -7.56385,0 0,7.5639 0,7.5638 7.56385,0 7.56385,0 0,-7.5638 z m -10.4329,0 0,-2.8691 2.86905,0 2.86905,0 0,2.8691 0,2.869 -2.86905,0 -2.86905,0 0,-2.869 z m -20.865797,-15.64939 0,-2.3474 -2.347403,0 -2.347402,0 0,2.3474 0,2.3474 2.347402,0 2.347403,0 0,-2.3474 z m 15.649347,0 0,-2.3474 -2.3474,0 -2.347402,0 0,2.3474 0,2.3474 2.347402,0 2.3474,0 0,-2.3474 z m 15.64935,0 0,-2.3474 -2.60822,0 -2.60823,0 0,-2.60823 0,-2.60822 -2.60822,0 -2.60823,0 0,-5.21646 0,-5.21645 -2.3474,0 -2.3474,0 0,7.56386 0,7.56385 2.60822,0 2.60823,0 0,2.60823 0,2.60822 4.95563,0 4.95562,0 0,-2.3474 z m -41.731597,-10.4329 0,-7.56386 -2.347403,0 -2.347402,0 0,2.60823 0,2.60822 -2.869048,0 -2.869047,0 0,-2.60822 0,-2.60823 -2.347403,0 -2.347402,0 0,7.56386 0,7.56385 7.563852,0 7.563853,0 0,-7.56385 z m -46.94805,0 0,-2.34741 -2.347403,0 -2.347402,0 0,2.34741 0,2.3474 2.347402,0 2.347403,0 0,-2.3474 z m 62.5974,-7.82468 0,-10.17207 -4.955628,0 -4.955627,0 0,2.3474 0,2.3474 2.608225,0 2.608225,0 0,5.47727 0,5.47727 -2.608225,0 -2.608225,0 0,2.34741 0,2.3474 4.955627,0 4.955628,0 0,-10.17208 z m -31.2987,-2.60822 0,-2.3474 -7.563853,0 -7.563852,0 0,2.3474 0,2.3474 7.563852,0 7.563853,0 0,-2.3474 z m -15.64935,-5.21645 0,-2.3474 -2.347403,0 -2.347402,0 0,2.3474 0,2.3474 2.347402,0 2.347403,0 0,-2.3474 z m 26.08225,0 0,-2.3474 -2.347403,0 -2.347402,0 0,2.3474 0,2.3474 2.347402,0 2.347403,0 0,-2.3474 z m 36.515147,0 0,-2.3474 -2.60822,0 -2.60823,0 0,-2.60823 0,-2.60822 -2.608222,0 -2.608225,0 0,-2.60823 0,-2.60822 -2.347403,0 -2.347402,0 0,4.95562 0,4.95563 2.608225,0 2.608225,0 0,2.60822 0,2.60823 4.955632,0 4.95562,0 0,-2.3474 z m -78.246747,-5.21645 0,-2.3474 -2.347403,0 -2.347402,0 0,2.3474 0,2.3474 2.347402,0 2.347403,0 0,-2.3474 z m 52.1645,0 0,-2.3474 -4.955628,0 -4.955627,0 0,2.3474 0,2.3474 4.955627,0 4.955628,0 0,-2.3474 z m 52.164497,0 0,-2.3474 -2.3474,0 -2.3474,0 0,2.3474 0,2.3474 2.3474,0 2.3474,0 0,-2.3474 z m -62.597397,-5.21645 0,-2.3474 -2.347403,0 -2.347402,0 0,2.3474 0,2.3474 2.347402,0 2.347403,0 0,-2.3474 z m 15.64935,-8.0855 0,-5.21645 2.608225,0 2.608225,0 0,-2.3474 0,-2.3474 -7.563853,0 -7.563852,0 0,2.3474 0,2.3474 2.608225,0 2.608225,0 0,2.86905 0,2.86905 -2.608225,0 -2.608225,0 0,2.3474 0,2.3474 4.955627,0 4.955628,0 0,-5.21645 z m -20.8658,-4.95563 0,-4.95562 -2.347403,0 -2.347402,0 0,4.95562 0,4.95563 2.347402,0 2.347403,0 0,-4.95563 z m 10.4329,2.60823 0,-2.3474 -2.347403,0 -2.347402,0 0,2.3474 0,2.3474 2.347402,0 2.347403,0 0,-2.3474 z m 20.8658,0 0,-2.3474 -2.347403,0 -2.347402,0 0,2.3474 0,2.3474 2.347402,0 2.347403,0 0,-2.3474 z m -20.8658,-10.4329 0,-2.3474 -2.347403,0 -2.347402,0 0,2.3474 0,2.3474 2.347402,0 2.347403,0 0,-2.3474 z m 10.4329,-7.82468 0,-4.95562 -2.347403,0 -2.347402,0 0,2.60822 0,2.60823 -2.608225,0 -2.608225,0 0,2.3474 0,2.3474 4.955627,0 4.955628,0 0,-4.95563 z m -15.64935,-2.60822 0,-2.3474 -2.347403,0 -2.347402,0 0,2.3474 0,2.3474 2.347402,0 2.347403,0 0,-2.3474 z m 26.08225,-5.21645 0,-2.3474 -2.347403,0 -2.347402,0 0,2.3474 0,2.3474 2.347402,0 2.347403,0 0,-2.3474 z m 41.731597,119.97839 0,-2.8691 2.86905,0 2.86905,0 0,2.8691 0,2.869 -2.86905,0 -2.86905,0 0,-2.869 z M 12.433063,930.88481 l 0,-18.5184 18.518397,0 18.518398,0 0,18.5184 0,18.5184 -18.518398,0 -18.518397,0 0,-18.5184 z m 31.2987,0 0,-12.7803 -12.780303,0 -12.780302,0 0,12.7803 0,12.7803 12.780302,0 12.780303,0 0,-12.7803 z m -20.8658,0 0,-8.0855 8.085497,0 8.085498,0 0,8.0855 0,8.0855 -8.085498,0 -8.085497,0 0,-8.0855 z m 83.463197,0 0,-18.5184 18.5184,0 18.5184,0 0,18.5184 0,18.5184 -18.5184,0 -18.5184,0 0,-18.5184 z m 31.2987,0 0,-12.7803 -12.7803,0 -12.7803,0 0,12.7803 0,12.7803 12.7803,0 12.7803,0 0,-12.7803 z m -20.8658,0 0,-8.0855 8.0855,0 8.0855,0 0,8.0855 0,8.0855 -8.0855,0 -8.0855,0 0,-8.0855 z"
         style="fill:#1c1c1c;fill-opacity:1" />
    </g>
    <g
       id="g4342"
       transform="translate(-144,0)">
      <text
         xml:space="preserve"
         style="font-size:104.62444305px;font-style:normal;font-weight:bold;line-height:125%;letter-spacing:0px;word-spacing:0px;fill:#1c1c1c;fill-opacity:1;stroke:none;font-family:Sans;-inkscape-font-specification:Sans Bold"
         x="141.85634"
         y="1014.877"
         id="text2985"
         sodipodi:linespacing="125%"><tspan
           sodipodi:role="line"
           id="tspan2987"
           x="141.85634"
           y="1014.877">H  UM</tspan></text>
      <path
         style="fill:none;stroke:#1c1c1c;stroke-width:12.27402592;stroke-linecap:butt;stroke-linejoin:miter;stroke-miterlimit:4;stroke-opacity:1;stroke-dasharray:none"
         d="m 238.71145,1008.5327 27.88956,-60.38008 28.36227,60.38008 z"
         id="path3767"
         inkscape:connector-curvature="0" />
      <path
         style="fill:none;stroke:#1c1c1c;stroke-width:11.69534302;stroke-linecap:butt;stroke-linejoin:miter;stroke-miterlimit:4;stroke-opacity:1;stroke-dasharray:none"
         d="m 266.34511,912.62687 0,52.17885"
         id="path3781"
         inkscape:connector-curvature="0" />
      <path
         style="fill:none;stroke:#1c1c1c;stroke-width:11.69534302;stroke-linecap:butt;stroke-linejoin:miter;stroke-miterlimit:4;stroke-opacity:1;stroke-dasharray:none"
         d="m 266.34511,1009.1085 0,33.9655"
         id="path3783"
         inkscape:connector-curvature="0" />
      <path
         style="fill:none;stroke:#1c1c1c;stroke-width:11.69534302;stroke-linecap:butt;stroke-linejoin:miter;stroke-miterlimit:4;stroke-opacity:1;stroke-dasharray:none"
         d="m 228.4416,944.56397 75.80702,0"
         id="path3789"
         inkscape:connector-curvature="0" />
      <text
         xml:space="preserve"
         style="font-size:21.63090706px;font-style:normal;font-variant:normal;font-weight:normal;font-stretch:normal;line-height:125%;letter-spacing:0px;word-spacing:0px;fill:#1c1c1c;fill-opacity:1;stroke:none;font-family:Verdana;-inkscape-font-specification:Verdana"
         x="149.4373"
         y="1042.8921"
         id="text3173"
         sodipodi:linespacing="125%"
         transform="scale(0.99999851,1.0000015)"><tspan
           sodipodi:role="line"
           id="tspan3175"
           x="149.4373"
           y="1042.8921"
           style="font-size:21.45999907999999934px;font-style:normal;font-variant:normal;font-weight:normal;font-stretch:normal;font-family:Sans;-inkscape-font-specification:Sans;fill:#1c1c1c;fill-opacity:1">haum.org</tspan></text>
      <text
         xml:space="preserve"
         style="font-size:15.08606243px;font-style:normal;font-variant:normal;font-weight:normal;font-stretch:normal;line-height:125%;letter-spacing:0px;word-spacing:0px;fill:#1c1c1c;fill-opacity:1;stroke:none;font-family:Verdana;-inkscape-font-specification:Verdana"
         x="368.52316"
         y="935.90717"
         id="text3181"
         sodipodi:linespacing="125%"
         transform="scale(1.0076294,0.99242837)"><tspan
           sodipodi:role="line"
           id="tspan3183"
           x="368.52316"
           y="935.90717"
           style="font-size:21.75410079999999979px;font-style:normal;font-variant:normal;font-weight:normal;font-stretch:normal;font-family:Sans;-inkscape-font-specification:Sans;fill:#1c1c1c;fill-opacity:1">@haum72</tspan></text>
      <text
         xml:space="preserve"
         style="font-size:15px;font-style:normal;font-variant:normal;font-weight:normal;font-stretch:normal;line-height:125%;letter-spacing:0px;word-spacing:0px;fill:#1c1c1c;fill-opacity:1;stroke:none;font-family:Verdana;-inkscape-font-specification:Verdana"
         x="300.19385"
         y="1042.7656"
         id="text3372"
         sodipodi:linespacing="125%"><tspan
           sodipodi:role="line"
           id="tspan3374"
           x="300.19385"
           y="1042.7656"
           style="font-size:21.45999907999999934px;fill:#1c1c1c;fill-opacity:1">freenode:#haum</tspan></text>
    </g>
  </g>
</svg>
