<?xml version="1.0" encoding="UTF-8" standalone="no"?>
<!-- Created with Inkscape (http://www.inkscape.org/) -->

<svg
   xmlns:dc="http://purl.org/dc/elements/1.1/"
   xmlns:cc="http://creativecommons.org/ns#"
   xmlns:rdf="http://www.w3.org/1999/02/22-rdf-syntax-ns#"
   xmlns:svg="http://www.w3.org/2000/svg"
   xmlns="http://www.w3.org/2000/svg"
   xmlns:sodipodi="http://sodipodi.sourceforge.net/DTD/sodipodi-0.dtd"
   xmlns:inkscape="http://www.inkscape.org/namespaces/inkscape"
   width="297mm"
   height="210mm"
   viewBox="0 0 1052.3622 744.09448"
   id="svg3385"
   version="1.1"
   inkscape:version="0.91 r"
   sodipodi:docname="Logo_BAL_black.svg">
  <defs
     id="defs3387" />
  <sodipodi:namedview
     id="base"
     pagecolor="#ffffff"
     bordercolor="#666666"
     borderopacity="1.0"
     inkscape:pageopacity="0.0"
     inkscape:pageshadow="2"
     inkscape:zoom="0.53891005"
     inkscape:cx="700.7318"
     inkscape:cy="83.805887"
     inkscape:document-units="px"
     inkscape:current-layer="layer1"
     showgrid="false"
     inkscape:window-width="1680"
     inkscape:window-height="995"
     inkscape:window-x="-2"
     inkscape:window-y="-3"
     inkscape:window-maximized="1" />
  <metadata
     id="metadata3390">
    <rdf:RDF>
      <cc:Work
         rdf:about="">
        <dc:format>image/svg+xml</dc:format>
        <dc:type
           rdf:resource="http://purl.org/dc/dcmitype/StillImage" />
        <dc:title></dc:title>
      </cc:Work>
    </rdf:RDF>
  </metadata>
  <g
     inkscape:label="Calque 1"
     inkscape:groupmode="layer"
     id="layer1"
     transform="translate(0,-308.26772)">
    <path
       style="fill:#000000;stroke:#000000;stroke-width:2.16100001;stroke-miterlimit:4;stroke-dasharray:none;stroke-dashoffset:0;stroke-opacity:1;fill-opacity:1"
       d="M 136.41797 212.59766 C 116.78805 212.59766 100.98438 228.40133 100.98438 248.03125 L 100.98438 496.0625 C 100.98438 515.69242 116.78805 531.49609 136.41797 531.49609 L 915.94531 531.49609 C 935.57523 531.49609 951.37891 515.69242 951.37891 496.0625 L 951.37891 248.03125 C 951.37891 228.40133 935.57523 212.59766 915.94531 212.59766 L 136.41797 212.59766 z M 414.63867 243.87695 L 444.94336 243.87695 L 444.94336 294.17188 L 507.60352 294.17188 L 507.60352 324.47656 L 449.07812 324.47656 L 508.16602 450.29688 L 444.94336 450.29688 L 444.94336 500.2168 L 414.63867 500.2168 L 414.63867 450.29688 L 394.63477 450.29688 L 406.91602 423.70312 L 466.32227 423.70312 L 429.13477 344.57812 L 392.60352 423.70312 L 392.66602 423.70312 L 380.38477 450.29688 L 351.04102 450.29688 L 409.15039 324.47656 L 351.97852 324.47656 L 351.97852 294.17188 L 414.63867 294.17188 L 414.63867 243.87695 z M 189.16602 294.01562 L 229.54102 294.01562 L 229.54102 348.98438 L 229.54102 353.67188 L 229.54102 384.17188 L 229.54102 450.51562 L 189.16602 450.51562 L 189.16602 294.01562 z M 289.07227 294.01562 L 329.44727 294.01562 L 329.44727 450.51562 L 289.07227 450.51562 L 289.07227 384.17188 L 242.47852 384.17188 L 242.47852 353.67188 L 289.07227 353.67188 L 289.07227 294.01562 z M 530.29102 294.01562 L 570.66602 294.01562 L 570.66602 387.82812 C 570.66596 400.75769 572.75385 410.01828 576.94727 415.60938 C 580.63644 420.38726 586.33807 423.09123 594.00977 423.73438 L 594.00977 453.51562 C 573.16364 452.94764 557.47407 447.55967 546.97852 437.32812 C 535.86611 426.49532 530.291 409.98306 530.29102 387.82812 L 530.29102 294.01562 z M 624.85352 294.01562 L 665.22852 294.01562 L 665.22852 387.82812 C 665.22837 409.98306 659.68451 426.49532 648.57227 437.32812 C 639.01533 446.64453 625.13645 451.96132 606.94727 453.26562 L 606.94727 422.85938 C 611.92346 421.59615 615.77161 419.17341 618.47852 415.60938 C 622.74165 410.01827 624.85341 400.75769 624.85352 387.82812 L 624.85352 294.01562 z M 689.07227 294.01562 L 727.38477 294.01562 L 727.38477 336.10938 L 727.35352 336.04688 L 727.35352 450.51562 L 689.07227 450.51562 L 689.07227 294.01562 z M 740.32227 294.01562 L 740.44727 294.01562 L 776.10352 377.76562 L 811.94727 294.01562 L 863.19727 294.01562 L 863.19727 450.51562 L 825.04102 450.51562 L 825.04102 336.04688 L 788.97852 420.45312 L 763.41602 420.45312 L 740.32227 366.39062 L 740.32227 294.01562 z "
       transform="translate(0,308.26772)"
       id="rect3393" />
  </g>
</svg>
