<?xml version="1.0" encoding="UTF-8" standalone="no"?>
<!-- Created with Inkscape (http://www.inkscape.org/) -->

<svg
   xmlns:dc="http://purl.org/dc/elements/1.1/"
   xmlns:cc="http://creativecommons.org/ns#"
   xmlns:rdf="http://www.w3.org/1999/02/22-rdf-syntax-ns#"
   xmlns:svg="http://www.w3.org/2000/svg"
   xmlns="http://www.w3.org/2000/svg"
   xmlns:sodipodi="http://sodipodi.sourceforge.net/DTD/sodipodi-0.dtd"
   xmlns:inkscape="http://www.inkscape.org/namespaces/inkscape"
   width="297mm"
   height="210mm"
   viewBox="0 0 1052.3622 744.09448"
   id="svg3385"
   version="1.1"
   inkscape:version="0.91 r"
   sodipodi:docname="Logo_BAL.svg">
  <defs
     id="defs3387" />
  <sodipodi:namedview
     id="base"
     pagecolor="#ffffff"
     bordercolor="#666666"
     borderopacity="1.0"
     inkscape:pageopacity="0.0"
     inkscape:pageshadow="2"
     inkscape:zoom="0.53891005"
     inkscape:cx="374.14669"
     inkscape:cy="83.805887"
     inkscape:document-units="px"
     inkscape:current-layer="layer1"
     showgrid="false"
     inkscape:window-width="1680"
     inkscape:window-height="995"
     inkscape:window-x="-2"
     inkscape:window-y="-3"
     inkscape:window-maximized="1" />
  <metadata
     id="metadata3390">
    <rdf:RDF>
      <cc:Work
         rdf:about="">
        <dc:format>image/svg+xml</dc:format>
        <dc:type
           rdf:resource="http://purl.org/dc/dcmitype/StillImage" />
        <dc:title />
      </cc:Work>
    </rdf:RDF>
  </metadata>
  <g
     inkscape:label="Calque 1"
     inkscape:groupmode="layer"
     id="layer1"
     transform="translate(0,-308.26772)">
    <rect
       style="fill:#ffffff;stroke:#000000;stroke-width:2.16100001;stroke-miterlimit:4;stroke-dasharray:none;stroke-dashoffset:0;stroke-opacity:1"
       id="rect3393"
       width="850.39368"
       height="318.89764"
       x="100.98426"
       y="520.86615"
       ry="35.433071" />
    <path
       inkscape:connector-curvature="0"
       style="font-style:normal;font-weight:bold;font-size:214.69970703px;line-height:125%;font-family:Sans;-inkscape-font-specification:'Sans Bold';letter-spacing:-15.66998291px;word-spacing:0px;fill:#000000;fill-opacity:1;stroke:none"
       d="m 189.16547,602.28373 0,156.5 40.375,0 0,-66.34375 0,-30.5 0,-4.6875 0,-54.96875 -40.375,0 z m 99.90625,0 0,59.65625 -46.59375,0 0,30.5 46.59375,0 0,66.34375 40.375,0 0,-156.5 -40.375,0 z m 241.21875,0 0,93.8125 c -2e-5,22.15493 5.57509,38.66719 16.6875,49.5 10.49555,10.23155 26.18512,15.61952 47.03125,16.1875 l 0,-29.78125 c -7.6717,-0.64315 -13.37333,-3.34712 -17.0625,-8.125 -4.19342,-5.5911 -6.28131,-14.85169 -6.28125,-27.78125 l 0,-93.8125 -40.375,0 z m 94.5625,0 0,93.8125 c -1.1e-4,12.92956 -2.11187,22.19015 -6.375,27.78125 -2.70691,3.56403 -6.55506,5.98678 -11.53125,7.25 l 0,30.40625 c 18.18918,-1.30431 32.06806,-6.62109 41.625,-15.9375 11.11224,-10.83281 16.6561,-27.34507 16.65625,-49.5 l 0,-93.8125 -40.375,0 z m 64.21875,0 0,156.5 38.28125,0 0,-114.46875 0.0312,0.0625 0,-42.09375 -38.3125,0 z m 51.25,0 0,72.375 23.09375,54.0625 25.5625,0 36.0625,-84.40625 0,114.46875 38.15625,0 0,-156.5 -51.25,0 -35.84375,83.75 -35.65625,-83.75 -0.125,0 z"
       id="text2985" />
    <path
       inkscape:connector-curvature="0"
       style="color:#000000;font-style:normal;font-variant:normal;font-weight:normal;font-stretch:normal;font-size:medium;line-height:normal;font-family:Sans;-inkscape-font-specification:Sans;text-indent:0;text-align:start;text-decoration:none;text-decoration-line:none;letter-spacing:normal;word-spacing:normal;text-transform:none;direction:ltr;block-progression:tb;writing-mode:lr-tb;baseline-shift:baseline;text-anchor:start;display:inline;overflow:visible;visibility:visible;fill:#000000;fill-opacity:1;stroke:none;stroke-width:26.58799934;marker:none;enable-background:accumulate"
       d="m 428.94672,589.87748 -77.90625,168.6875 29.34375,0 12.28125,-26.59375 -0.0625,0 36.53125,-79.125 37.1875,79.125 -59.40625,0 -12.28125,26.59375 113.53125,0 -79.21875,-168.6875 z"
       id="path3767" />
    <rect
       style="fill:#000000;fill-opacity:1;stroke:none"
       id="rect3996"
       width="155.62477"
       height="30.304577"
       x="351.97925"
       y="602.4389" />
    <rect
       style="fill:#000000;fill-opacity:1;stroke:none"
       id="rect3996-7"
       width="98.481911"
       height="30.304577"
       x="552.14539"
       y="-444.94391"
       transform="matrix(0,1,-1,0,0,0)" />
    <rect
       style="fill:#000000;fill-opacity:1;stroke:none"
       id="rect3996-6"
       width="72.002571"
       height="30.304577"
       x="736.48199"
       y="-444.94391"
       transform="matrix(0,1,-1,0,0,0)" />
  </g>
</svg>
