<?xml version="1.0" encoding="UTF-8" standalone="no"?>
<!-- Created with Inkscape (http://www.inkscape.org/) -->

<svg
   xmlns:dc="http://purl.org/dc/elements/1.1/"
   xmlns:cc="http://creativecommons.org/ns#"
   xmlns:rdf="http://www.w3.org/1999/02/22-rdf-syntax-ns#"
   xmlns:svg="http://www.w3.org/2000/svg"
   xmlns="http://www.w3.org/2000/svg"
   xmlns:sodipodi="http://sodipodi.sourceforge.net/DTD/sodipodi-0.dtd"
   xmlns:inkscape="http://www.inkscape.org/namespaces/inkscape"
   width="517.33331"
   height="160"
   id="svg3044"
   version="1.1"
   inkscape:version="0.92.1 unknown"
   sodipodi:docname="stickers2-1.svg"
   inkscape:export-filename="/home/matael/workspace/hackerspace/legal/logo/stickers2.png"
   inkscape:export-xdpi="90"
   inkscape:export-ydpi="90">
  <sodipodi:namedview
     id="base"
     pagecolor="#ffffff"
     bordercolor="#666666"
     borderopacity="1.0"
     inkscape:pageopacity="0.0"
     inkscape:pageshadow="2"
     inkscape:zoom="37.97924"
     inkscape:cx="496.20704"
     inkscape:cy="9.6502572"
     inkscape:document-units="px"
     inkscape:current-layer="layer2"
     showgrid="false"
     showguides="true"
     inkscape:guide-bbox="true"
     inkscape:snap-global="true"
     inkscape:window-width="1280"
     inkscape:window-height="980"
     inkscape:window-x="0"
     inkscape:window-y="25"
     inkscape:window-maximized="1">
    <sodipodi:guide
       id="guide3169"
       position="-140.95238,9.9047619"
       orientation="0,1"
       inkscape:locked="false" />
    <sodipodi:guide
       id="guide3171"
       position="-48,131.80953"
       orientation="0,1"
       inkscape:locked="false" />
    <sodipodi:guide
       id="guide3177"
       position="161.35503,122.83455"
       orientation="1,0"
       inkscape:locked="false" />
    <sodipodi:guide
       id="guide3179"
       position="-246.09524,149.33333"
       orientation="0,1"
       inkscape:locked="false" />
    <sodipodi:guide
       id="guide3287"
       position="513.69625,-4.8487323"
       orientation="1,0"
       inkscape:locked="false" />
    <sodipodi:guide
       orientation="1,0"
       position="360.04434,-28.672474"
       id="guide3131"
       inkscape:locked="false" />
    <sodipodi:guide
       position="451.5117,-0.45607243"
       orientation="0,1"
       id="guide5686"
       inkscape:locked="false" />
  </sodipodi:namedview>
  <defs
     id="defs3046" />
  <metadata
     id="metadata3049">
    <rdf:RDF>
      <cc:Work
         rdf:about="">
        <dc:format>image/svg+xml</dc:format>
        <dc:type
           rdf:resource="http://purl.org/dc/dcmitype/StillImage" />
        <dc:title />
      </cc:Work>
    </rdf:RDF>
  </metadata>
  <g
     transform="translate(0,-962.51966)"
     id="layer1"
     inkscape:groupmode="layer"
     inkscape:label="Calque 1"
     style="display:inline">
    <g
       id="g4342"
       transform="translate(-153.6)"
       style="display:inline">
      <text
         xml:space="preserve"
         style="font-style:normal;font-weight:bold;font-size:12.80000019px;line-height:0%;font-family:sans-serif;-inkscape-font-specification:'Sans Bold';letter-spacing:0px;word-spacing:0px;fill:#1c1c1c;fill-opacity:1;stroke:none;stroke-width:1.06666672"
         x="151.31343"
         y="1082.5355"
         id="text2985"><tspan
           sodipodi:role="line"
           id="tspan2987"
           x="151.31343"
           y="1082.5355"
           style="font-size:111.59940338px;line-height:1.25;font-family:sans-serif;stroke-width:1.06666672">H  UM</tspan></text>
      <path
         style="fill:none;stroke:#1c1c1c;stroke-width:13.09229469;stroke-linecap:butt;stroke-linejoin:miter;stroke-miterlimit:4;stroke-dasharray:none;stroke-opacity:1"
         d="m 254.62555,1075.7682 29.74886,-64.4054 30.25309,64.4054 z"
         id="path3767"
         inkscape:connector-curvature="0" />
      <path
         style="fill:none;stroke:#1c1c1c;stroke-width:12.47503281;stroke-linecap:butt;stroke-linejoin:miter;stroke-miterlimit:4;stroke-dasharray:none;stroke-opacity:1"
         d="m 284.10145,973.46866 v 55.65744"
         id="path3781"
         inkscape:connector-curvature="0" />
      <path
         style="fill:none;stroke:#1c1c1c;stroke-width:12.47503281;stroke-linecap:butt;stroke-linejoin:miter;stroke-miterlimit:4;stroke-dasharray:none;stroke-opacity:1"
         d="m 284.10145,1076.3824 v 36.2299"
         id="path3783"
         inkscape:connector-curvature="0" />
      <path
         style="fill:none;stroke:#1c1c1c;stroke-width:12.47503281;stroke-linecap:butt;stroke-linejoin:miter;stroke-miterlimit:4;stroke-dasharray:none;stroke-opacity:1"
         d="m 243.67104,1007.5349 h 80.86082"
         id="path3789"
         inkscape:connector-curvature="0" />
      <text
         xml:space="preserve"
         style="font-style:normal;font-variant:normal;font-weight:normal;font-stretch:normal;font-size:12.80000019px;line-height:0%;font-family:Verdana;-inkscape-font-specification:Verdana;letter-spacing:0px;word-spacing:0px;fill:#1c1c1c;fill-opacity:1;stroke:none;stroke-width:1.06666672"
         x="159.3998"
         y="1112.4182"
         id="text3173"
         transform="scale(0.99999851,1.0000015)"><tspan
           sodipodi:role="line"
           id="tspan3175"
           x="159.3998"
           y="1112.4182"
           style="font-style:normal;font-variant:normal;font-weight:normal;font-stretch:normal;font-size:22.89066505px;line-height:1.25;font-family:sans-serif;-inkscape-font-specification:Sans;fill:#b32c0e;fill-opacity:1;stroke-width:1.06666672">haum.org</tspan></text>
      <text
         xml:space="preserve"
         style="font-style:normal;font-variant:normal;font-weight:normal;font-stretch:normal;font-size:12.80000019px;line-height:0%;font-family:Verdana;-inkscape-font-specification:Verdana;letter-spacing:0px;word-spacing:0px;fill:#1c1c1c;fill-opacity:1;stroke:none;stroke-width:1.06666672"
         x="393.09137"
         y="998.30096"
         id="text3181"
         transform="scale(1.0076294,0.99242837)"><tspan
           sodipodi:role="line"
           id="tspan3183"
           x="393.09137"
           y="998.30096"
           style="font-style:normal;font-variant:normal;font-weight:normal;font-stretch:normal;font-size:23.20437431px;line-height:1.25;font-family:sans-serif;-inkscape-font-specification:Sans;fill:#b32c0e;fill-opacity:1;stroke-width:1.06666672">@haum72</tspan></text>
      <text
         xml:space="preserve"
         style="font-style:normal;font-variant:normal;font-weight:normal;font-stretch:normal;font-size:12.80000019px;line-height:0%;font-family:Verdana;-inkscape-font-specification:Verdana;letter-spacing:0px;word-spacing:0px;fill:#1c1c1c;fill-opacity:1;stroke:none;stroke-width:1.06666672"
         x="320.20676"
         y="1112.2833"
         id="text3372"><tspan
           sodipodi:role="line"
           id="tspan3374"
           x="320.20676"
           y="1112.2833"
           style="font-size:22.89066505px;line-height:1.25;fill:#b32c0e;fill-opacity:1;stroke-width:1.06666672">freenode:#haum</tspan></text>
    </g>
  </g>
  <g
     inkscape:groupmode="layer"
     id="layer2"
     inkscape:label="Calque 2">
    <path
       inkscape:connector-curvature="0"
       style="display:inline;fill:#000000;stroke:none;stroke-width:0.10149425"
       d="m 504.67462,150.10296 c 0.40044,-3.93566 0.54002,-7.53006 0.54075,-12.5391 6.9e-4,-5.93581 -0.10904,-8.26349 -0.61626,-13.09272 -2.39575,-22.81 -10.92774,-44.568261 -24.63553,-62.824972 -21.41853,-28.526259 -53.64977,-46.615785 -89.2305,-50.080019 -3.80315,-0.370286 -7.95905,-0.554389 -12.13044,-0.554551 h 10e-6 c -2.36378,-9.5e-5 -0.42696,-0.05959 -2.7739,0.0638 l -0.1407,4.65453 -0.0267,3.187183 -4.89711,0.0264 -4.89711,0.02639 v 1.572216 1.572225 h 4.41504 c 2.72481,0 4.41484,0.03686 4.41484,0.09645 0,0.05314 -0.76365,1.618537 -1.66364,3.494938 l -2.00473,4.179709 -3.32231,6.867437 c -0.95678,1.994629 -1.73966,3.672615 -1.73966,3.728907 0,0.06701 1.67364,0.111545 4.84638,0.128786 l 4.84637,0.0264 v 3.146297 l 0.1856,5.046779 7.31979,0.174647 c 6.39898,0.05968 18.72401,1.790546 29.28814,6.123089 13.86935,5.68809 26.29087,15.032181 35.86666,26.980843 11.03089,13.764337 17.61695,30.284066 19.0943,47.893966 0.21674,2.58352 0.30556,9.30446 0.16297,12.33151 -0.12258,2.60221 -0.36276,5.19446 -0.71766,7.76824 l 1.66838,-0.007 c 0.31639,-2.32527 0.52922,-4.62535 0.66595,-6.93127 0.16655,-2.80873 0.0722,-11.23576 -0.15016,-13.41533 -1.22875,-12.04363 -3.93336,-21.70057 -8.9821,-32.072162 -3.64604,-7.490026 -8.37697,-14.510913 -13.95186,-20.704793 -10.38375,-11.537046 -23.52904,-20.198106 -38.27558,-25.218875 -8.56623,-2.916555 -16.81247,-4.439216 -25.8604,-4.775383 -1.44004,-0.05351 -2.73023,-0.125445 -2.86717,-0.159825 l -0.24903,-0.06245 V 43.670841 40.58624 h 4.73246 4.73244 l -0.0476,-0.482072 c -0.0581,-0.589203 -0.25282,-1.036803 -2.47819,-5.692886 -0.96956,-2.028617 -1.76289,-3.713006 -1.76289,-3.743036 0,-0.01517 0.0469,-0.02345 0.17209,-0.02267 l 0.001,-8e-6 c 0.37537,0.0023 1.45382,0.08557 4.07475,0.30571 7.62715,0.640641 16.31147,2.408335 23.71487,4.827051 9.29914,3.038082 17.7134,7.141253 25.9825,12.670299 9.10963,6.091083 17.23854,13.520206 24.09955,22.024828 13.93404,17.271993 21.81423,37.451124 23.46474,60.087404 0.16644,2.28655 0.16585,11.80396 -0.002,14.10779 -0.13719,1.86928 -0.31659,3.69422 -0.53326,5.48458 l 1.58473,-0.0226 c 0.11697,-0.968 0.22019,-1.91736 0.30584,-2.82321 0.28854,-3.0515 0.40903,-9.05241 0.27467,-13.67664 -0.12371,-4.25774 -0.23275,-5.74679 -0.68538,-9.36251 C 484.03628,104.68608 476.26518,86.023426 464.09477,70.4913 459.68631,64.865144 453.80659,58.811436 448.21293,54.139662 435.06355,43.157407 418.73534,35.156218 402.02221,31.504907 c -5.56902,-1.216655 -9.39398,-1.764211 -16.00523,-2.29087 -1.47901,-0.117816 -2.69574,-0.259811 -2.77275,-0.323732 -0.12877,-0.106864 -2.53777,-4.916055 -3.10188,-6.192429 l -0.25796,-0.583541 h 4.20653 4.20633 v -1.573338 -1.573149 h -4.71945 -4.71944 v -3.21339 -3.213384 l 2.96864,0.06672 c 20.865,0.468846 40.77186,6.006867 58.88984,16.382865 9.69824,5.55408 18.40277,12.241588 26.44152,20.314711 4.65251,4.672392 8.12449,8.678253 11.92769,13.761745 12.84921,17.174657 20.96078,37.337095 23.64184,58.765325 0.92446,10.14715 1.14816,19.26281 0.32421,28.29023 z M 377.34877,24.21787 c 0.0903,0.09031 3.00114,6.074241 5.22216,10.73532 0.79798,1.674655 1.41954,3.076627 1.38117,3.115449 -0.0828,0.08375 -8.4406,0.168798 -11.31032,0.115037 -1.26757,-0.02374 -2.00449,-0.07555 -2.00449,-0.140871 0,-0.305044 6.61179,-13.924625 6.71148,-13.824935 z"
       id="path1938"
       sodipodi:nodetypes="ccssscccccccccsssccscccccssscccscscscccccccccsccccccccccsscssccccccccccccccsccccccsccsc" />
    <path
       style="fill:#000000;stroke-width:0.10149427"
       d="m 491.11094,136.4983 v 2.38509 2.38509 h 0.35533 0.35514 v -2.38509 -2.38509 h -0.35514 z m 7.10473,0.30441 v 2.33435 2.33436 h 0.34343 0.34344 l 0.0667,-1.95375 c 0.0367,-1.07457 0.0916,-2.12503 0.1221,-2.33436 l 0.0556,-0.3806 h -0.46572 z m -4.66871,0.609 v 0.35514 0.35533 h 0.7612 0.76121 v -0.35533 -0.35514 h -0.76121 z"
       id="path1740"
       inkscape:connector-curvature="0" />
    <path
       style="fill:#000000;stroke-width:0.10149427"
       d="m 497.89788,125.7509 c -0.15081,0.004 -0.18976,0.0477 -0.18975,0.16038 4e-5,0.40995 0.30645,4.15887 0.35775,4.37694 0.0436,0.18541 0.11316,0.22803 0.3308,0.20294 0.26228,-0.0302 0.27681,-0.0612 0.30106,-0.64078 0.014,-0.33494 -0.0316,-1.38539 -0.10147,-2.33436 l -0.12693,-1.72535 -0.3806,-0.0316 c -0.0778,-0.006 -0.14059,-0.01 -0.19086,-0.008 z m -7.07852,0.49285 c -0.27912,-0.002 -0.24393,0.14333 -0.063,2.59175 0.0825,1.11643 0.1509,2.04126 0.1509,2.05522 0,0.0139 0.1646,0.0253 0.36481,0.0253 h 0.36388 l -0.0723,-1.55753 -0.0725,-1.55773 1.76365,-0.12024 c 0.97001,-0.0661 2.02638,-0.14607 2.34736,-0.17767 l 0.58354,-0.0574 v -0.35904 -0.35886 l -1.46759,0.0727 c -0.80722,0.04 -1.86918,0.10976 -2.35982,0.15499 -0.49064,0.0452 -0.92637,0.0616 -0.96823,0.0364 -0.0419,-0.0252 -0.076,-0.20285 -0.076,-0.39492 0,-0.33146 -0.0182,-0.34938 -0.35533,-0.34938 -0.0532,0 -0.0995,-0.003 -0.13938,-0.004 z m 4.96699,2.84542 c -0.69403,0 -1.02158,0.14018 -1.02158,0.43728 0,0.13163 0.0304,0.26981 0.0677,0.30702 0.1174,0.11742 1.20567,0.0733 1.33303,-0.0541 0.067,-0.067 0.12173,-0.24976 0.12173,-0.40606 0,-0.27286 -0.0199,-0.28415 -0.50084,-0.28415 z"
       id="path1728"
       inkscape:connector-curvature="0" />
    <path
       style="fill:#000000;stroke-width:0.10149427"
       d="m 496.46263,114.9812 c -0.0973,0.003 -0.18233,0.0308 -0.21874,0.0897 -0.0304,0.0492 0.034,0.72202 0.14291,1.49529 0.10895,0.77329 0.16524,1.43852 0.12526,1.47818 -0.04,0.0397 -0.91751,0.21305 -1.95022,0.38543 -2.39918,0.4005 -2.5373,0.44438 -2.5373,0.80526 0,0.15384 0.0296,0.30928 0.0658,0.34548 0.0362,0.0362 0.16182,0.0442 0.27913,0.0177 0.4217,-0.0955 4.03758,-0.65843 4.2292,-0.65843 0.1255,0 0.19606,0.0699 0.19606,0.19457 0,0.34434 0.11755,0.51571 0.35366,0.51571 0.49455,0 0.50522,-0.15932 0.15518,-2.30815 -0.17965,-1.1029 -0.36923,-2.08521 -0.42131,-2.1829 -0.0613,-0.11502 -0.25748,-0.18209 -0.41962,-0.17784 z m -6.97018,1.11894 c -0.15544,-0.005 -0.31016,0.0186 -0.34232,0.0738 -0.0471,0.0808 0.5717,4.01022 0.69041,4.38419 0.0527,0.16594 0.13658,0.21256 0.34027,0.189 0.23669,-0.0274 0.27415,-0.0819 0.29976,-0.43728 0.0284,-0.39444 -0.52081,-3.9205 -0.64097,-4.11491 -0.0353,-0.0572 -0.1917,-0.0901 -0.34715,-0.0948 z m 4.50462,0.10817 c -0.27905,0.003 -0.63325,0.0346 -1.05912,0.0961 -1.13299,0.16361 -1.31947,0.23916 -1.31947,0.53523 0,0.13163 0.0304,0.2698 0.0676,0.30701 0.0372,0.0372 0.16283,0.0677 0.27913,0.0676 0.42691,-4e-5 2.62803,-0.39681 2.72183,-0.49061 0.0532,-0.0533 0.0806,-0.18147 0.061,-0.28508 -0.0299,-0.15732 -0.28592,-0.23457 -0.75099,-0.23026 z"
       id="path1716"
       inkscape:connector-curvature="0" />
    <path
       style="fill:#000000;stroke-width:0.10149427"
       d="m 494.12158,104.21576 c -0.0849,-0.008 -0.18469,0.0474 -0.31742,0.1444 -0.17986,0.13152 -0.16838,0.21096 0.28229,1.97532 0.25827,1.01111 0.53693,1.99995 0.61942,2.19738 0.16296,0.39 0.5199,0.49659 0.63743,0.1903 0.0697,-0.1815 -0.16801,-1.31617 -0.68612,-3.27434 -0.23423,-0.88523 -0.34888,-1.21454 -0.5356,-1.23306 z m -2.09555,1.43656 c -0.22634,0.004 -0.6073,0.0906 -1.2273,0.25126 -0.72513,0.18792 -1.36253,0.36899 -1.41648,0.40234 -0.10897,0.0673 -0.12895,0.35739 -0.0405,0.58782 0.063,0.16419 0.21779,0.13738 2.0738,-0.35923 0.74121,-0.19833 0.86726,-0.26379 0.89576,-0.46479 0.0411,-0.28968 0.006,-0.42219 -0.28527,-0.4174 z m -4.78208,0.34808 c -0.0635,-0.002 -0.14141,0.004 -0.21817,0.0186 -0.19158,0.0376 -0.27895,0.11743 -0.27895,0.2548 0,0.16151 0.91161,3.8478 1.06785,4.31802 0.0506,0.15224 0.0667,0.15365 0.39063,0.0305 0.19765,-0.0752 0.26108,-0.18 0.28582,-0.47297 0.031,-0.36686 0.0485,-0.38172 0.69152,-0.58855 0.62032,-0.19951 0.65848,-0.22959 0.63893,-0.50364 -0.0114,-0.16028 -0.0467,-0.31727 -0.0782,-0.34882 -0.0315,-0.0315 -0.36472,0.0166 -0.7404,0.10704 -0.37568,0.0904 -0.71521,0.13292 -0.75451,0.0946 -0.0393,-0.0383 -0.23548,-0.68581 -0.43599,-1.43897 -0.20051,-0.75314 -0.39668,-1.40024 -0.43598,-1.43804 -0.0197,-0.0189 -0.069,-0.03 -0.13251,-0.0325 z m 5.41469,1.89466 c -0.053,0.004 -0.12036,0.0151 -0.2074,0.0314 -0.69353,0.13 -1.0357,0.32428 -1.0357,0.588 0,0.1331 0.0304,0.27259 0.0677,0.30979 0.1018,0.10181 0.46921,0.0815 0.85598,-0.0472 0.49932,-0.1662 0.63727,-0.32683 0.5566,-0.64822 -0.0475,-0.18941 -0.078,-0.24526 -0.23713,-0.23378 z"
       id="path1708"
       inkscape:connector-curvature="0" />
    <path
       style="fill:#000000;stroke-width:0.10149427"
       d="m 490.58595,93.823879 c -0.0167,0.0017 -0.0342,0.006 -0.0526,0.01264 -0.4363,0.155923 -0.4344,0.202804 0.0686,1.704171 l 0.48802,1.456807 -0.58707,0.21409 c -0.71172,0.259514 -0.87176,0.41893 -0.71474,0.712328 0.1333,0.249085 0.33711,0.261817 0.91694,0.05724 0.55718,-0.196581 0.70272,-0.191767 0.78016,0.02546 0.0348,0.09768 0.1075,0.234623 0.1615,0.304406 0.11888,0.153631 0.13615,0.154754 0.38432,0.02193 0.10799,-0.05779 0.19643,-0.182471 0.19643,-0.276908 0,-0.21467 -0.95881,-3.035599 -1.27561,-3.753065 -0.16522,-0.374181 -0.24876,-0.491083 -0.36592,-0.479103 z m -1.81642,1.5213 c -0.22788,0.0076 -2.61899,0.907949 -2.75213,1.041084 -0.0516,0.05163 -0.0634,0.214755 -0.0264,0.362392 0.0371,0.147617 0.11188,0.268354 0.16651,0.268354 0.0934,0 2.04005,-0.662545 2.64062,-0.898729 0.25428,-0.100004 0.26704,-0.131679 0.16763,-0.416846 -0.0592,-0.169769 -0.14065,-0.32908 -0.18101,-0.354028 -0.003,-0.0017 -0.008,-0.0025 -0.0152,-0.0022 z m -4.92927,0.851344 c -0.0661,0.0049 -0.13372,0.06199 -0.21817,0.146437 -0.20852,0.208523 -0.15357,0.428321 0.69876,2.800261 0.57654,1.604459 0.64029,1.731459 0.83982,1.671829 0.38186,-0.11412 0.50479,-0.29479 0.37094,-0.54489 -0.15948,-0.297984 -0.0219,-0.448979 0.61793,-0.679064 0.63521,-0.228428 0.73293,-0.339536 0.60193,-0.684077 -0.12129,-0.319022 -0.11934,-0.318822 -0.79242,-0.063 -0.29367,0.111612 -0.59851,0.202938 -0.67758,0.202938 -0.0868,0 -0.26927,-0.331715 -0.46051,-0.837404 -0.59605,-1.575974 -0.78229,-2.028017 -0.9807,-2.01303 z"
       id="path1696"
       inkscape:connector-curvature="0" />
    <path
       style="fill:#000000;stroke-width:0.10149427"
       d="m 486.14451,83.789734 c -0.0359,0 -0.0737,0.01463 -0.11931,0.03903 -0.41018,0.219523 -0.41943,0.186201 0.74393,2.683549 0.39005,0.837328 0.75565,1.579571 0.8125,1.649346 0.12512,0.153611 0.1417,0.154477 0.3897,0.02174 0.10798,-0.05778 0.19626,-0.18054 0.19626,-0.272817 -1e-5,-0.203452 -1.10406,-2.672978 -1.58969,-3.555702 -0.23494,-0.427056 -0.3257,-0.564321 -0.43339,-0.565149 z m -1.74356,1.686882 c -0.01,-0.0014 -0.0193,-9.51e-4 -0.0284,0.0029 -0.66763,0.258534 -2.70047,1.233089 -2.70047,1.294575 0,0.04417 0.0446,0.197276 0.099,0.340459 0.0544,0.143193 0.14829,0.260362 0.20871,0.260362 0.13359,0 2.54793,-1.103788 2.67555,-1.223212 0.11385,-0.106522 -0.10652,-0.653611 -0.25441,-0.675162 z m -4.81088,1.441764 c -0.26019,0 -0.30079,0.03591 -0.28638,0.253673 0.009,0.139557 0.42025,1.132637 0.91341,2.206872 0.49317,1.074224 0.91253,1.953752 0.93181,1.953752 0.0193,0 0.17004,-0.07906 0.33508,-0.176553 0.22604,-0.133525 0.28479,-0.22743 0.23768,-0.380603 -0.13561,-0.44091 -0.0938,-0.511227 0.48301,-0.812313 0.61397,-0.320487 0.75091,-0.59769 0.42781,-0.865835 -0.12869,-0.106797 -0.24164,-0.08935 -0.64469,0.09942 -0.26877,0.125895 -0.57035,0.21272 -0.66996,0.19309 -0.11445,-0.02256 -0.40992,-0.484032 -0.80283,-1.253689 -0.58488,-1.145635 -0.63977,-1.217817 -0.92494,-1.217817 z"
       id="path1684"
       inkscape:connector-curvature="0" />
    <path
       style="fill:#000000;stroke-width:0.10149427"
       d="m 480.78336,74.151246 c -0.0486,0.0061 -0.10254,0.04088 -0.18026,0.09181 -0.13777,0.09026 -0.25052,0.210065 -0.25052,0.266308 0,0.114333 1.36941,2.575097 1.89279,3.401273 0.18565,0.293064 0.38677,0.532997 0.44696,0.532997 0.18736,0 0.50214,-0.204603 0.50214,-0.326339 0,-0.122212 -1.33386,-2.464265 -1.96844,-3.456279 -0.25423,-0.397436 -0.33573,-0.523045 -0.44267,-0.509771 z m -1.59787,1.85117 -1.87774,1.081047 c -1.0327,0.594521 -1.93913,1.104616 -2.01434,1.133627 -0.0752,0.02901 -0.24334,-0.07946 -0.37372,-0.241036 -0.1924,-0.238448 -0.27059,-0.273349 -0.4148,-0.185468 -0.41864,0.255147 -0.38692,0.357006 0.67479,2.175834 0.57007,0.97659 1.0839,1.835003 1.142,1.90748 0.13488,0.168265 0.47897,0.118672 0.60825,-0.08772 0.0754,-0.120318 -0.0642,-0.447352 -0.57332,-1.344196 -0.37005,-0.651831 -0.67274,-1.24327 -0.67274,-1.314271 0,-0.135191 0.92884,-0.740122 2.76569,-1.801359 0.60009,-0.346691 1.09107,-0.688825 1.09107,-0.760274 0,-0.07147 -0.08,-0.227525 -0.17766,-0.346787 z m 1.21559,2.033298 -1.08215,0.635389 c -1.64517,0.965705 -1.58085,0.908215 -1.37262,1.225999 0.20963,0.319955 0.25961,0.306244 1.49286,-0.409415 1.50196,-0.871591 1.4509,-0.816746 1.13847,-1.22265 z"
       id="path1672"
       inkscape:connector-curvature="0" />
    <path
       style="fill:#000000;stroke-width:0.10149427"
       d="m 474.66323,65.167481 c -0.17313,-0.0082 -0.50178,0.171034 -0.50178,0.312771 0,0.107672 1.37267,2.09271 2.38509,3.449038 0.22689,0.303959 0.41784,0.339822 0.69413,0.130461 0.17695,-0.134096 0.16428,-0.174459 -0.2455,-0.78332 -0.23764,-0.353095 -0.82411,-1.166549 -1.30312,-1.807685 -0.47903,-0.641146 -0.90194,-1.209511 -0.93981,-1.262976 -0.0174,-0.02461 -0.0491,-0.0364 -0.089,-0.03829 z m -1.51888,2.041291 c -0.03,0.0018 -0.0602,0.0072 -0.0901,0.01672 -0.17231,0.05468 -2.01357,1.329515 -2.27861,1.577611 -0.048,0.04492 -0.005,0.220436 0.0948,0.3899 0.1001,0.169463 0.23075,0.279705 0.29029,0.245118 0.69192,-0.402003 2.39178,-1.723839 2.39178,-1.859895 0,-0.214623 -0.19827,-0.381888 -0.4081,-0.369452 z m -4.28031,2.004486 c -0.0387,-0.003 -0.18777,0.09703 -0.33117,0.222634 l -0.26073,0.2284 0.96377,1.354226 c 0.53011,0.74485 1.12847,1.578391 1.32951,1.852283 0.40053,0.545623 0.53258,0.595949 0.79726,0.303483 0.13803,-0.152517 0.15245,-0.238657 0.0665,-0.399186 -0.18875,-0.352705 -0.12459,-0.494385 0.39789,-0.877919 0.54948,-0.403364 0.58915,-0.497934 0.35086,-0.838146 l -0.15666,-0.223757 -0.54581,0.362392 c -0.30015,0.199284 -0.62774,0.346577 -0.72795,0.327271 -0.1002,-0.0193 -0.54908,-0.54608 -0.9976,-1.170612 -0.4485,-0.624533 -0.84714,-1.138024 -0.8859,-1.141069 z"
       id="path1660"
       inkscape:connector-curvature="0" />
    <path
       style="fill:#000000;stroke-width:0.10149427"
       d="m 467.573,56.693297 c -0.0542,-0.0042 -0.10006,0.02196 -0.15853,0.06523 -0.31116,0.230303 -0.14913,0.506574 1.31706,2.245523 0.72568,0.860687 1.37319,1.567601 1.43898,1.570741 0.15585,0.0075 0.43858,-0.277146 0.43858,-0.441567 0,-0.152898 -1.40533,-1.85745 -2.33436,-2.83148 -0.42283,-0.443308 -0.58243,-0.59928 -0.70173,-0.608443 z m -1.13958,2.193485 c -0.22395,0.0028 -0.65532,0.351478 -2.07232,1.548247 l -1.60771,1.357946 -0.2587,-0.309241 -0.25888,-0.309059 -0.27151,0.286575 -0.27151,0.286566 1.51925,1.751927 c 1.36542,1.574605 1.53987,1.740928 1.7235,1.642657 0.28164,-0.150738 0.34716,-0.375161 0.16986,-0.581877 -0.082,-0.09562 -0.178,-0.225298 -0.21335,-0.28805 -0.0531,-0.09429 0.71203,-0.784956 2.18197,-1.969547 0.18666,-0.150433 0.18343,-0.16424 -0.1037,-0.43933 l -0.29642,-0.283969 -1.17062,1.022501 -1.1708,1.022311 -0.51571,-0.58317 -0.5159,-0.58298 0.48486,-0.456801 c 0.26668,-0.251198 1.02339,-0.928672 1.6815,-1.505505 0.6581,-0.576843 1.2228,-1.116938 1.2548,-1.200347 0.032,-0.08339 -0.0153,-0.225089 -0.105,-0.314817 -0.0574,-0.0574 -0.10896,-0.09495 -0.18361,-0.09404 z"
       id="path1650"
       inkscape:connector-curvature="0" />
    <path
       style="fill:#000000;stroke-width:0.10149427"
       d="m 459.855,48.948721 c -0.0344,0.0017 -0.0643,0.01205 -0.0918,0.02936 -0.36524,0.22998 -0.22079,0.448104 1.36687,2.063214 l 1.59861,1.626109 0.28898,-0.276718 0.28899,-0.276898 -1.29662,-1.305166 c -1.44936,-1.458815 -1.91408,-1.872131 -2.15502,-1.859904 z m -2.09239,3.38287 c -0.0997,0.0078 -0.23456,0.127645 -0.55585,0.429302 l -0.54136,0.508277 0.2403,0.255717 c 0.1321,0.140605 0.27401,0.255528 0.31537,0.255528 0.11673,0 0.9043,-0.92675 0.9043,-1.064129 0,-0.06721 -0.0849,-0.199018 -0.18863,-0.292884 -0.0671,-0.06077 -0.11432,-0.09651 -0.17413,-0.09181 z m -2.82869,1.662543 c -0.13649,0 -0.46199,0.296195 -0.46387,0.436352 -9.5e-4,0.06113 0.74142,0.826005 1.64935,1.699708 l 1.65083,1.588573 0.28248,-0.266118 0.28267,-0.266128 -1.64211,-1.576126 c -0.90314,-0.866901 -1.68363,-1.592293 -1.73463,-1.611989 -0.007,-0.0028 -0.0156,-0.0043 -0.0247,-0.0043 z"
       id="path1640"
       inkscape:connector-curvature="0" />
    <path
       style="fill:#000000;stroke-width:0.10149427"
       d="m 451.50552,41.759254 -0.19013,0.234909 c -0.14196,0.175325 -0.1648,0.282141 -0.0901,0.42167 0.055,0.102782 0.84097,0.783587 1.74653,1.512937 0.90556,0.72936 1.66685,1.326165 1.69191,1.326165 0.12157,0 0.41644,-0.355027 0.41349,-0.497867 -0.003,-0.136884 -1.1304,-1.092798 -3.12028,-2.645461 z m -0.80471,2.436757 c -0.1637,-0.01626 -0.36184,0.218828 -1.27561,1.339914 -0.74705,0.916532 -0.76214,0.945905 -0.58484,1.141811 0.10009,0.110594 0.25477,0.20112 0.34381,0.201082 0.089,-3.8e-5 0.46304,-0.376912 0.83108,-0.837404 1.22844,-1.537038 1.24153,-1.566545 0.80172,-1.801919 -0.0425,-0.02273 -0.0784,-0.03974 -0.11616,-0.04348 z m 1.78223,1.46833 c -0.061,-0.0019 -0.30614,0.22781 -0.54452,0.510513 l -0.43338,0.514033 0.23231,0.247174 c 0.12773,0.135961 0.26633,0.247354 0.30811,0.247354 0.0418,0 0.29027,-0.250989 0.55233,-0.557717 l 0.47649,-0.557708 -0.24028,-0.20015 c -0.13214,-0.11007 -0.29002,-0.201691 -0.35106,-0.203499 z m -5.48958,1.722012 c -0.0761,0 -0.19359,0.121136 -0.2611,0.269286 -0.13956,0.30631 -0.3132,0.132783 2.10205,2.100189 1.3718,1.117443 1.4304,1.139775 1.69506,0.645247 0.088,-0.164516 0.0579,-0.237801 -0.17321,-0.422051 l -0.2795,-0.223005 0.47093,-0.600088 0.47092,-0.600079 -0.25739,-0.254785 -0.2574,-0.254976 -0.53411,0.599526 -0.5341,0.599708 -1.15204,-0.929577 c -0.63354,-0.511207 -1.21406,-0.929395 -1.29011,-0.929395 z"
       id="path1628"
       inkscape:connector-curvature="0" />
    <path
       style="fill:#000000;stroke-width:0.10149427"
       d="m 442.44648,35.596561 c -0.0919,0.0055 -0.13532,0.07653 -0.20183,0.178036 -0.21788,0.332524 -0.15829,0.404401 0.95895,1.158909 0.47568,0.321239 0.9675,0.694944 1.09293,0.830525 l 0.22803,0.246612 -1.21763,1.86548 c -0.6697,1.026098 -1.21764,1.899973 -1.21764,1.941858 0,0.04189 0.10155,0.147265 0.22561,0.234157 0.12407,0.0869 0.25213,0.157969 0.28471,0.157969 0.0326,0 0.64306,-0.867671 1.35664,-1.928289 0.71358,-1.060618 1.32058,-1.92848 1.34884,-1.92848 0.0283,0 0.18767,0.07997 0.35422,0.177666 0.29732,0.174402 0.30651,0.173117 0.50251,-0.06783 0.24852,-0.305501 0.34399,-0.213224 -1.63671,-1.58077 -1.43859,-0.993242 -1.87634,-1.297972 -2.07863,-1.28584 z m -0.56496,2.390484 c -0.0545,-9.51e-4 -0.10325,0.02518 -0.1654,0.07675 -0.21006,0.174326 -1.55531,2.220412 -1.55531,2.365584 0,0.06396 0.0567,0.172832 0.12582,0.241959 0.27301,0.272997 0.5282,0.06278 1.26539,-1.042197 0.40708,-0.610183 0.74021,-1.181564 0.74021,-1.269674 0,-0.08813 -0.0949,-0.219494 -0.21093,-0.291952 -0.085,-0.05312 -0.14527,-0.07991 -0.19978,-0.08047 z m -3.35815,3.470219 c -0.084,-0.0081 -0.14664,0.06474 -0.24569,0.25627 -0.13761,0.266109 -0.14251,0.340402 -0.029,0.44974 0.0748,0.07204 0.93362,0.660699 1.90841,1.307954 l 1.77237,1.176749 0.20535,-0.205354 c 0.16002,-0.160025 0.18143,-0.244424 0.097,-0.381717 -0.0915,-0.148854 -3.08501,-2.276741 -3.61519,-2.569816 -0.0349,-0.01928 -0.0653,-0.03112 -0.0933,-0.03383 z"
       id="path1614"
       inkscape:connector-curvature="0" />
    <path
       style="fill:#000000;stroke-width:0.10149427"
       d="m 432.88233,30.132265 c -0.10661,0 -0.39465,0.583732 -0.32188,0.652307 0.0908,0.08559 2.92407,1.631238 3.38845,1.848562 0.27912,0.130623 0.55541,0.238439 0.61402,0.238439 0.146,0.0013 0.35012,-0.21466 0.35012,-0.370575 0,-0.16972 -3.74189,-2.368733 -4.03071,-2.368733 z m -1.1158,3.967905 c -0.15783,0.01246 -0.29581,0.16581 -0.47017,0.486164 -0.31583,0.580268 -0.33556,0.775299 -0.0924,0.916941 0.0977,0.05691 0.20486,0.104961 0.23807,0.106673 0.10797,0.0055 0.36771,-0.342229 0.59897,-0.801912 0.21646,-0.430282 0.21827,-0.455459 0.0431,-0.583541 -0.12106,-0.08853 -0.22289,-0.131803 -0.31761,-0.124325 z m -2.26465,2.397536 c -0.0856,-0.007 -0.12427,0.02683 -0.16485,0.08233 -0.31402,0.429444 -0.20189,0.520799 2.11172,1.721079 0.9121,0.473176 1.68545,0.861258 1.71866,0.862305 0.0332,10e-4 0.14097,-0.08715 0.23936,-0.195877 0.17194,-0.189988 0.16902,-0.206801 -0.0758,-0.431338 -0.14013,-0.128511 -1.06519,-0.663592 -2.05559,-1.189015 -1.16866,-0.619984 -1.58509,-0.83395 -1.77348,-0.849488 z"
       id="path1600"
       inkscape:connector-curvature="0" />
    <path
       style="fill:#000000;stroke-width:0.10149427"
       d="m 422.86398,25.731166 c -0.0485,0.0014 -0.0811,0.01351 -0.10555,0.03383 -0.0858,0.07121 -0.15611,0.231027 -0.15611,0.355322 0,0.196572 0.26102,0.339784 2.00449,1.099259 1.10248,0.480255 2.07194,0.863504 2.15427,0.851705 0.15867,-0.02273 0.42619,-0.467105 0.35273,-0.585958 -0.0239,-0.03866 -0.97848,-0.470683 -2.12138,-0.960053 -1.41245,-0.604779 -1.9184,-0.800181 -2.12845,-0.794101 z m -0.17246,2.397916 c -0.0103,0 -0.0194,9.52e-4 -0.0269,0.0033 -0.0606,0.02019 -0.51517,0.979378 -1.01022,2.131417 l -0.90004,2.094623 -0.43227,-0.05929 c -0.40731,-0.05581 -0.43601,-0.04325 -0.50233,0.220969 -0.0387,0.154154 -0.0334,0.317262 0.0117,0.362392 0.0649,0.0649 3.13344,1.395844 3.78597,1.642094 0.31256,0.117959 0.47815,0.06618 0.59264,-0.185097 0.15313,-0.336091 0.167,-0.306271 -0.21204,-0.457171 -0.18142,-0.07223 -0.34157,-0.138977 -0.35588,-0.148302 -0.0143,-0.0093 0.22542,-0.616445 0.5328,-1.349211 0.30738,-0.732776 0.55882,-1.395054 0.55882,-1.471679 0,-0.07662 -0.11376,-0.191187 -0.25293,-0.254596 -0.31907,-0.145381 -0.3797,-0.05905 -1.02026,1.452907 -0.26015,0.614046 -0.50415,1.149793 -0.5421,1.190689 -0.0747,0.08044 -1.26865,-0.449521 -1.36538,-0.606035 -0.0323,-0.05233 0.3364,-1.022044 0.81937,-2.155015 l 0.8781,-2.060054 -0.23788,-0.192719 c -0.1145,-0.09273 -0.24879,-0.157903 -0.32113,-0.159263 z"
       id="path1592"
       inkscape:connector-curvature="0" />
    <path
       style="fill:#000000;stroke-width:0.10149427"
       d="m 412.49532,22.11432 c -0.13642,0 -0.2453,0.225184 -0.2453,0.507344 0,0.148112 0.25687,0.271856 1.25406,0.60417 0.68979,0.229875 1.32836,0.473538 1.41908,0.541361 0.15075,0.112668 0.14299,0.193204 -0.0909,0.935152 -0.47654,1.511891 -0.55935,1.899231 -0.43729,2.046305 0.32464,0.391166 0.56659,0.05898 1.09182,-1.499929 l 0.38915,-1.155379 0.40978,0.0262 c 0.37248,0.02371 0.41918,-0.0013 0.51441,-0.274491 0.10323,-0.296129 0.097,-0.303312 -0.4213,-0.496935 -0.79317,-0.29629 -3.7441,-1.233802 -3.88354,-1.233802 z m 0.1314,2.553278 c -0.25711,0.01756 -0.45852,0.466182 -0.84688,1.843177 -0.24014,0.851372 -0.25959,1.009836 -0.1338,1.089402 0.43107,0.272712 0.57853,0.04632 1.10984,-1.702868 0.26384,-0.868642 0.24431,-1.182088 -0.0769,-1.227675 -0.0177,-0.0025 -0.0351,-0.0032 -0.0522,-0.002 z m -2.25909,4.24685 c -0.15405,0 -0.3505,0.30512 -0.3505,0.54433 0,0.09497 0.19927,0.211691 0.53281,0.312209 0.29306,0.08832 1.17224,0.363676 1.95375,0.611981 0.78151,0.248297 1.54797,0.45349 1.70324,0.455678 0.37477,0.0055 0.48267,-0.274082 0.1955,-0.506602 -0.21153,-0.1713 -3.75879,-1.417596 -4.0348,-1.417596 z"
       id="path1582"
       inkscape:connector-curvature="0" />
    <path
       style="fill:#000000;stroke-width:0.10149427"
       d="m 401.88898,19.556027 c -0.2808,0.004 -0.29257,0.135695 -0.29438,0.398625 -0.002,0.245232 0.2228,0.329812 1.85954,0.700995 1.09509,0.248354 1.10913,0.262722 0.97511,0.986629 -0.0604,0.326501 -0.0852,0.65754 -0.0552,0.735754 0.03,0.07819 0.18834,0.142165 0.35199,0.142165 0.2754,0 0.30687,-0.0396 0.4226,-0.532806 0.18415,-0.784833 0.25956,-0.888139 0.64821,-0.888139 0.27348,0 0.34841,-0.04525 0.38414,-0.232111 0.0603,-0.315606 -0.006,-0.478361 -0.19625,-0.478361 -0.0873,0 -1.07175,-0.209513 -2.18754,-0.465716 -1.07763,-0.24744 -1.62742,-0.371069 -1.90822,-0.367035 z m 0.3557,2.481164 c -0.11444,-0.0088 -0.22052,0.01145 -0.26427,0.0552 -0.13077,0.130775 -0.37103,1.143389 -0.31221,1.315946 0.0238,0.06977 0.17757,0.126931 0.34176,0.126931 0.3346,0 0.46074,-0.218343 0.56477,-0.977342 0.0557,-0.406599 0.0426,-0.437542 -0.21483,-0.50215 -0.038,-0.0095 -0.0771,-0.01565 -0.11522,-0.01858 z m 1.65269,3.629301 c -0.38636,0 -0.40921,0.0313 -0.53337,0.732215 -0.11525,0.650651 -0.20174,0.667749 -1.75267,0.347158 -1.31169,-0.271142 -1.38481,-0.27609 -1.51033,-0.104448 -0.18082,0.247307 -0.16531,0.421014 0.0478,0.535043 0.158,0.08455 2.61822,0.6552 3.88018,0.900023 0.50691,0.09835 0.60476,0.03508 0.60733,-0.392678 0.001,-0.217782 -0.0564,-0.278107 -0.31611,-0.33006 -0.30398,-0.0608 -0.31494,-0.07996 -0.25219,-0.443974 0.0361,-0.209274 0.094,-0.574692 0.1286,-0.811941 l 0.063,-0.431338 z"
       id="path1576"
       inkscape:connector-curvature="0" />
    <path
       style="fill:#000000;stroke-width:0.10149427"
       d="m 471.8271,131.22059 v 3.34923 0 3.34943 h 0.71047 0.71029 l 10e-4,-2.51203 c 0,-1.38159 0.0299,-2.88889 0.0658,-3.34942 l 0.0652,-0.83721 h -0.77626 z m 9.54055,0.10147 v 2.08068 2.08049 h -1.06581 -1.06561 v 0.71047 0.71048 h 1.06561 1.06581 v 0.55827 0.55826 h 0.64673 0.64673 l 0.0654,-2.56275 c 0.0359,-1.40951 0.0921,-2.91662 0.12489,-3.34924 l 0.0596,-0.78666 h -0.7718 z m -4.16137,0.95113 v 0.74244 0.74225 h 1.1591 1.15909 l 0.0712,-0.6642 c 0.0392,-0.36537 0.0542,-0.67979 0.0334,-0.69858 -0.0207,-0.0188 -0.57437,-0.0539 -1.23028,-0.0781 z"
       id="path1478"
       inkscape:connector-curvature="0" />
    <path
       style="fill:#000000;stroke-width:0.10149427"
       d="m 477.75228,106.52039 c -0.26456,0.006 -0.74894,0.17808 -0.74894,0.29883 0,0.12563 1.0956,4.79289 1.32636,5.65033 0.0865,0.32163 0.14507,0.38035 0.37762,0.37912 0.51876,-0.003 0.73185,-0.1092 0.73185,-0.3663 0,-0.26552 -0.4499,-2.34193 -0.9149,-4.22214 -0.29133,-1.17796 -0.44399,-1.5917 -0.6326,-1.71494 -0.029,-0.0189 -0.0783,-0.0263 -0.13939,-0.0249 z m -9.13206,2.18438 c -0.11405,-10e-4 -0.29598,0.0283 -0.46443,0.0788 -0.4009,0.12012 -0.40723,0.12926 -0.34008,0.49602 0.0707,0.38604 1.24115,5.40876 1.33564,5.73153 0.0329,0.11226 0.11806,0.16255 0.22264,0.13158 0.0932,-0.0276 0.30643,-0.0814 0.47389,-0.11968 0.16747,-0.0383 0.33439,-0.086 0.37076,-0.10612 0.158,-0.0873 -1.31223,-6.12435 -1.50996,-6.20023 -0.0199,-0.008 -0.0505,-0.0115 -0.0885,-0.0119 z m 4.24963,0.087 c -0.24969,0.001 -1.40239,0.23587 -1.72126,0.35012 -0.11161,0.04 -0.0674,0.37399 0.12618,0.95188 0.0504,0.15041 0.63581,0.10265 1.53339,-0.12525 0.40674,-0.10328 0.49584,-0.16787 0.52091,-0.37819 0.0542,-0.45465 -0.14457,-0.80018 -0.45922,-0.79856 z"
       id="path1466"
       inkscape:connector-curvature="0" />
    <path
       style="fill:#000000;stroke-width:0.10149427"
       d="m 467.46782,83.178314 c -0.0481,-0.002 -0.10383,0.01522 -0.17915,0.04386 -0.45352,0.172433 -0.84076,0.436162 -0.84076,0.572761 0,0.07231 0.38731,0.905037 0.86063,1.850427 l 0.86045,1.718844 -0.2769,0.192909 c -0.15234,0.106102 -0.77941,0.459436 -1.39344,0.784994 -1.74876,0.927188 -1.89973,1.034614 -1.82069,1.295869 0.0372,0.12305 0.15845,0.373601 0.26947,0.556966 0.2461,0.406408 0.12808,0.437428 2.2957,-0.600269 1.54855,-0.741349 1.67866,-0.786203 1.80433,-0.621268 0.0745,0.09776 0.16253,0.25764 0.1957,0.355331 0.0332,0.09768 0.14728,0.177666 0.25367,0.177666 0.25152,0 1.11226,-0.41835 1.11226,-0.540609 0,-0.09564 -2.3543,-4.634419 -2.80992,-5.417101 -0.15674,-0.269258 -0.22546,-0.366027 -0.33135,-0.370384 z m -2.28066,2.411665 c -0.24907,0.01893 -1.5443,0.617738 -1.92698,0.901155 -0.18766,0.138949 -0.18344,0.161138 0.13436,0.7166 0.18039,0.315282 0.35152,0.573322 0.38041,0.573322 0.0564,0 1.72027,-0.856148 1.94595,-1.001311 0.10879,-0.06995 0.0839,-0.189188 -0.12507,-0.601572 -0.14332,-0.282826 -0.31141,-0.545528 -0.37354,-0.583912 -0.007,-0.0042 -0.0185,-0.0055 -0.0351,-0.0043 z m -6.07292,1.94614 c -0.19521,-0.01915 -1.19181,0.45307 -1.19181,0.578898 0,0.102458 2.81411,5.543518 2.95953,5.72224 0.10707,0.131584 0.79147,-0.05949 1.13122,-0.315739 0.17054,-0.128635 0.17219,-0.164269 0.0253,-0.515899 -0.0868,-0.207743 -0.15759,-0.429149 -0.15759,-0.492111 0,-0.06296 0.36544,-0.320078 0.81175,-0.571276 0.44632,-0.251198 0.81176,-0.489951 0.81176,-0.53058 0,-0.04064 -0.12048,-0.319945 -0.26798,-0.620707 l -0.26817,-0.546747 -0.92308,0.431338 c -0.82839,0.387255 -0.93448,0.414553 -1.03625,0.265566 -0.0623,-0.0913 -0.49115,-0.873856 -0.95281,-1.739101 -0.46167,-0.865235 -0.87296,-1.610152 -0.91397,-1.655292 -0.005,-0.0059 -0.0149,-0.0093 -0.0279,-0.01059 z"
       id="path1456"
       inkscape:connector-curvature="0" />
    <path
       style="fill:#000000;stroke-width:0.10149427"
       d="m 451.68095,63.303866 c -0.0113,9.51e-4 -0.0213,0.0039 -0.0303,0.0089 -0.25545,0.141271 -0.83295,0.69326 -0.83295,0.796146 0,0.109158 0.28816,0.451748 2.51574,2.993352 1.93661,2.20965 1.75663,2.103823 2.48991,1.466294 l 0.38784,-0.33712 -2.19366,-2.507187 c -1.71019,-1.954723 -2.16745,-2.433779 -2.33659,-2.420401 z m -1.65789,2.91567 c -0.1828,-0.0036 -0.41364,0.217753 -1.07863,0.828669 l -0.68743,0.631488 0.43059,0.514404 c 0.23684,0.282884 0.47037,0.501103 0.51888,0.484861 0.0485,-0.01623 0.47311,-0.372088 0.94352,-0.790752 0.95787,-0.852513 0.96022,-0.867176 0.23378,-1.455142 -0.15851,-0.128292 -0.25104,-0.211397 -0.36071,-0.213528 z m 2.15799,2.249985 -0.88461,0.737229 c -0.48653,0.405447 -0.88461,0.770541 -0.88461,0.811199 0,0.04067 0.16186,0.286043 0.3598,0.545262 0.19793,0.259229 0.41991,0.471292 0.49322,0.471292 0.0733,0 0.51123,-0.354399 0.97306,-0.787411 l 0.83963,-0.787222 -0.44825,-0.495089 z m -5.32864,0.433564 -0.77607,0.662336 -0.77626,0.662155 -0.36555,-0.356996 -0.36574,-0.357187 -0.5027,0.442299 -0.50251,0.442299 0.50604,0.592838 c 0.2784,0.326015 1.25098,1.428309 2.16115,2.449573 0.91017,1.021283 1.70938,1.856565 1.77609,1.856565 0.0667,0 0.32677,-0.177808 0.57797,-0.394733 l 0.45679,-0.394353 -0.34009,-0.424088 -0.34008,-0.424097 0.44118,-0.373914 c 0.24267,-0.205573 0.59348,-0.511531 0.77961,-0.679986 l 0.33841,-0.306272 -0.42278,-0.480217 c -0.23252,-0.264157 -0.46328,-0.480397 -0.51293,-0.480397 -0.0496,0 -0.40866,0.274072 -0.79781,0.609003 -0.38915,0.334931 -0.73432,0.609004 -0.76697,0.609004 -0.0603,0 -0.52131,-0.504138 -0.89222,-0.975668 l -0.20407,-0.259438 0.68446,-0.689844 c 0.77419,-0.780151 0.79066,-0.897881 0.19811,-1.418157 z"
       id="path1444"
       inkscape:connector-curvature="0" />
    <path
       style="fill:#000000;stroke-width:0.10149427"
       d="m 431.55115,47.69095 -0.36388,0.495631 c -0.20012,0.272617 -0.36388,0.543131 -0.36388,0.601201 0,0.05808 1.19507,0.931175 2.65568,1.940184 1.46061,1.009018 2.69252,1.834632 2.73763,1.834632 0.0451,0 0.24472,-0.239932 0.44361,-0.532997 l 0.36164,-0.532807 -0.3189,-0.270028 c -0.17539,-0.14855 -1.4063,-1.004927 -2.7354,-1.903018 z m -0.9253,3.270992 c -0.0126,-9.52e-4 -0.0235,9.51e-4 -0.0324,0.0043 -0.14194,0.05446 -1.44419,1.889791 -1.37875,1.943161 0.0195,0.01594 0.285,0.195088 0.59005,0.397892 0.30506,0.202824 0.5828,0.335046 0.61718,0.293998 0.0344,-0.04104 0.32785,-0.45898 0.65211,-0.928835 0.44605,-0.646302 0.56567,-0.892334 0.49118,-1.010426 -0.16862,-0.267326 -0.75025,-0.69285 -0.93942,-0.700063 z m -4.46411,4.645484 c -0.10795,0 -0.71753,0.842133 -0.71753,0.991272 0,0.09822 1.71395,1.33648 3.95136,2.854717 l 1.36315,0.925123 0.24512,-0.228961 c 0.13493,-0.125847 0.33741,-0.357026 0.44974,-0.513853 l 0.20424,-0.285263 -0.41424,-0.354589 -0.41424,-0.354589 0.57109,-0.858213 c 0.31416,-0.472072 0.55272,-0.875265 0.53002,-0.895941 -0.24771,-0.225631 -1.1424,-0.678587 -1.19329,-0.60417 -0.0363,0.05307 -0.29158,0.413754 -0.56719,0.801532 -0.27562,0.387768 -0.51116,0.719807 -0.52351,0.737981 -0.0123,0.01817 -0.77925,-0.472824 -1.70417,-1.091076 -0.92493,-0.618272 -1.72619,-1.12397 -1.78055,-1.12397 z"
       id="path1430"
       inkscape:connector-curvature="0" />
    <path
       style="fill:#000000;stroke-width:0.10149427"
       d="m 408.25516,37.601047 c -0.0848,0.01162 -0.13004,0.101355 -0.22356,0.323551 -0.34401,0.817317 -0.3286,0.872134 0.32708,1.165046 0.32598,0.145629 1.14079,0.475973 1.81065,0.73407 0.66986,0.258078 1.24897,0.500912 1.28696,0.539686 0.038,0.03878 -0.0629,0.479618 -0.22431,0.979569 -0.16139,0.499942 -0.26859,0.933782 -0.23825,0.964145 0.0303,0.03036 0.24537,0.133515 0.47798,0.229142 0.6792,0.27923 0.75902,0.228952 1.13233,-0.712699 0.18386,-0.463746 0.35495,-0.863789 0.38024,-0.889071 0.0253,-0.02529 0.24409,0.02387 0.48616,0.109281 0.24208,0.08539 0.47182,0.120261 0.51069,0.07731 0.14794,-0.163412 0.41857,-1.165665 0.33526,-1.241605 -0.048,-0.04377 -1.32039,-0.538905 -2.82758,-1.100181 -1.50719,-0.561286 -2.86583,-1.068212 -3.01919,-1.126577 -0.0983,-0.03743 -0.16357,-0.05863 -0.21446,-0.05167 z m -0.20274,3.31282 c -0.01,-0.0012 -0.0157,-0.0011 -0.0173,9.52e-4 -0.0124,0.01475 -0.19589,0.496925 -0.40773,1.07156 -0.43393,1.177121 -0.42649,1.213202 0.30924,1.481709 0.22315,0.08145 0.4458,0.138159 0.4947,0.126008 0.10164,-0.02525 0.86231,-1.860637 0.87011,-2.099457 0.003,-0.102582 -0.21216,-0.235441 -0.61922,-0.381907 -0.30051,-0.108119 -0.56106,-0.189816 -0.62981,-0.198656 z m -3.09539,5.660544 c -0.12422,0 -0.2419,0.179826 -0.39398,0.602496 l -0.21687,0.602495 0.67869,0.258887 c 0.37326,0.142364 1.77479,0.666569 3.11451,1.164846 1.33973,0.498267 2.46457,0.87555 2.49958,0.838517 0.14199,-0.150243 0.40959,-1.156835 0.32819,-1.234725 -0.13036,-0.124762 -5.80461,-2.232516 -6.01012,-2.232516 z"
       id="path1418"
       inkscape:connector-curvature="0" />
    <path
       style="display:none;fill:#000000;fill-opacity:1;fill-rule:evenodd;stroke:#d00000;stroke-width:0.37795275;stroke-linecap:butt;stroke-linejoin:miter;stroke-miterlimit:4;stroke-dasharray:none;stroke-opacity:1"
       d="m 450.77245,150.0615 60.31175,0.0681 v 0"
       id="path5688"
       inkscape:connector-curvature="0" />
  </g>
</svg>
