<?xml version="1.0" encoding="UTF-8" standalone="no"?>
<!-- Created with Inkscape (http://www.inkscape.org/) -->

<svg
   xmlns:dc="http://purl.org/dc/elements/1.1/"
   xmlns:cc="http://creativecommons.org/ns#"
   xmlns:rdf="http://www.w3.org/1999/02/22-rdf-syntax-ns#"
   xmlns:svg="http://www.w3.org/2000/svg"
   xmlns="http://www.w3.org/2000/svg"
   xmlns:sodipodi="http://sodipodi.sourceforge.net/DTD/sodipodi-0.dtd"
   xmlns:inkscape="http://www.inkscape.org/namespaces/inkscape"
   width="750"
   height="300"
   id="svg2"
   version="1.1"
   inkscape:version="0.48.4 r9939"
   sodipodi:docname="logo.svg"
   inkscape:export-filename="/home/matael/workspace/hackerspace/logo/logo.png"
   inkscape:export-xdpi="90"
   inkscape:export-ydpi="90">
  <defs
     id="defs4" />
  <sodipodi:namedview
     id="base"
     pagecolor="#ffffff"
     bordercolor="#666666"
     borderopacity="1.0"
     inkscape:pageopacity="0.0"
     inkscape:pageshadow="2"
     inkscape:zoom="0.7"
     inkscape:cx="538.0068"
     inkscape:cy="207.79906"
     inkscape:document-units="px"
     inkscape:current-layer="layer1"
     showgrid="false"
     showguides="true"
     inkscape:guide-bbox="true"
     inkscape:snap-global="false"
     inkscape:snap-bbox="false"
     inkscape:window-width="1022"
     inkscape:window-height="581"
     inkscape:window-x="0"
     inkscape:window-y="18"
     inkscape:window-maximized="0" />
  <metadata
     id="metadata7">
    <rdf:RDF>
      <cc:Work
         rdf:about="">
        <dc:format>image/svg+xml</dc:format>
        <dc:type
           rdf:resource="http://purl.org/dc/dcmitype/StillImage" />
        <dc:title />
      </cc:Work>
    </rdf:RDF>
  </metadata>
  <g
     inkscape:label="Calque 1"
     inkscape:groupmode="layer"
     id="layer1"
     transform="translate(0,-752.36179)">
    <path
       style="font-size:214.69970703px;font-style:normal;font-weight:bold;line-height:125%;letter-spacing:-15.66998291px;word-spacing:0px;fill:#1c1c1c;fill-opacity:1;stroke:none;font-family:Sans;-inkscape-font-specification:Sans Bold"
       d="M 36.125 69.46875 L 36.125 225.96875 L 76.5 225.96875 L 76.5 159.625 L 76.5 129.125 L 76.5 124.4375 L 76.5 69.46875 L 36.125 69.46875 z M 136.03125 69.46875 L 136.03125 129.125 L 89.4375 129.125 L 89.4375 159.625 L 136.03125 159.625 L 136.03125 225.96875 L 176.40625 225.96875 L 176.40625 69.46875 L 136.03125 69.46875 z M 377.25 69.46875 L 377.25 163.28125 C 377.24998 185.43618 382.82509 201.94844 393.9375 212.78125 C 404.43305 223.0128 420.12262 228.40077 440.96875 228.96875 L 440.96875 199.1875 C 433.29705 198.54435 427.59542 195.84038 423.90625 191.0625 C 419.71283 185.4714 417.62494 176.21081 417.625 163.28125 L 417.625 69.46875 L 377.25 69.46875 z M 471.8125 69.46875 L 471.8125 163.28125 C 471.81239 176.21081 469.70063 185.4714 465.4375 191.0625 C 462.73059 194.62653 458.88244 197.04928 453.90625 198.3125 L 453.90625 228.71875 C 472.09543 227.41444 485.97431 222.09766 495.53125 212.78125 C 506.64349 201.94844 512.18735 185.43618 512.1875 163.28125 L 512.1875 69.46875 L 471.8125 69.46875 z M 536.03125 69.46875 L 536.03125 225.96875 L 574.3125 225.96875 L 574.3125 111.5 L 574.34375 111.5625 L 574.34375 69.46875 L 536.03125 69.46875 z M 587.28125 69.46875 L 587.28125 141.84375 L 610.375 195.90625 L 635.9375 195.90625 L 672 111.5 L 672 225.96875 L 710.15625 225.96875 L 710.15625 69.46875 L 658.90625 69.46875 L 623.0625 153.21875 L 587.40625 69.46875 L 587.28125 69.46875 z "
       transform="translate(0,752.36179)"
       id="text2985" />
    <path
       style="font-size:medium;font-style:normal;font-variant:normal;font-weight:normal;font-stretch:normal;text-indent:0;text-align:start;text-decoration:none;line-height:normal;letter-spacing:normal;word-spacing:normal;text-transform:none;direction:ltr;block-progression:tb;writing-mode:lr-tb;text-anchor:start;baseline-shift:baseline;color:#000000;fill:#1c1c1c;fill-opacity:1;stroke:none;stroke-width:26.58799934;marker:none;visibility:visible;display:inline;overflow:visible;enable-background:accumulate;font-family:Sans;-inkscape-font-specification:Sans"
       d="M 275.90625 57.0625 L 198 225.75 L 227.34375 225.75 L 239.625 199.15625 L 239.5625 199.15625 L 276.09375 120.03125 L 313.28125 199.15625 L 253.875 199.15625 L 241.59375 225.75 L 355.125 225.75 L 275.90625 57.0625 z "
       transform="translate(0,752.36179)"
       id="path3767" />
    <rect
       style="fill:#1c1c1c;fill-opacity:1;stroke:none"
       id="rect3996"
       width="155.62477"
       height="30.304577"
       x="198.93878"
       y="821.98572" />
    <rect
       style="fill:#1c1c1c;fill-opacity:1;stroke:none"
       id="rect3996-7"
       width="98.481911"
       height="30.304577"
       x="771.6922"
       y="-291.90344"
       transform="matrix(0,1,-1,0,0,0)" />
    <rect
       style="fill:#1c1c1c;fill-opacity:1;stroke:none"
       id="rect3996-6"
       width="72.002571"
       height="30.304577"
       x="956.02881"
       y="-291.90344"
       transform="matrix(0,1,-1,0,0,0)" />
  </g>
</svg>
