<?xml version="1.0" encoding="UTF-8" standalone="no"?>
<!-- Created with Inkscape (http://www.inkscape.org/) -->

<svg
   id="svg3200"
   version="1.1"
   inkscape:version="1.1.2 (0a00cf5339, 2022-02-04, custom)"
   width="726.99451"
   height="308.20041"
   sodipodi:docname="LogoStencil2.svg"
   xmlns:inkscape="http://www.inkscape.org/namespaces/inkscape"
   xmlns:sodipodi="http://sodipodi.sourceforge.net/DTD/sodipodi-0.dtd"
   xmlns="http://www.w3.org/2000/svg"
   xmlns:svg="http://www.w3.org/2000/svg"
   xmlns:rdf="http://www.w3.org/1999/02/22-rdf-syntax-ns#"
   xmlns:cc="http://creativecommons.org/ns#"
   xmlns:dc="http://purl.org/dc/elements/1.1/">
  <metadata
     id="metadata3206">
    <rdf:RDF>
      <cc:Work
         rdf:about="">
        <dc:format>image/svg+xml</dc:format>
        <dc:type
           rdf:resource="http://purl.org/dc/dcmitype/StillImage" />
      </cc:Work>
    </rdf:RDF>
  </metadata>
  <defs
     id="defs3204">
    <inkscape:path-effect
       effect="spiro"
       id="path-effect4355"
       is_visible="true"
       lpeversion="0" />
    <inkscape:path-effect
       effect="spiro"
       id="path-effect4351"
       is_visible="true"
       lpeversion="0" />
  </defs>
  <sodipodi:namedview
     pagecolor="#ffffff"
     bordercolor="#666666"
     borderopacity="1"
     objecttolerance="10"
     gridtolerance="10"
     guidetolerance="10"
     inkscape:pageopacity="0"
     inkscape:pageshadow="2"
     inkscape:window-width="3200"
     inkscape:window-height="1731"
     id="namedview3202"
     showgrid="false"
     inkscape:zoom="1.6518014"
     inkscape:cx="418.63386"
     inkscape:cy="233.68427"
     inkscape:window-x="0"
     inkscape:window-y="0"
     inkscape:window-maximized="1"
     inkscape:current-layer="svg3200"
     inkscape:pagecheckerboard="0"
     fit-margin-top="20"
     fit-margin-left="20"
     fit-margin-right="20"
     fit-margin-bottom="20" />
  <path
     style="fill:#3197bf;fill-opacity:1;stroke:none;stroke-width:7.8;stroke-miterlimit:4;stroke-dasharray:none;stroke-opacity:1"
     d="m 264.00321,259.8953 -2.54258,-28.30513 -12.6885,1.13978 c -6.97867,0.62688 -12.72099,0.77805 -12.76071,0.33593 -0.0397,-0.44212 1.80554,-6.25307 4.10055,-12.91325 l 4.17276,-12.10939 37.21631,-3.60073 c 20.46896,-1.98039 37.19687,-3.81706 37.17311,-4.08148 -0.15547,-1.73085 -50.83867,-82.34065 -51.97433,-82.66331 -3.12858,-0.88887 -1.54333,-4.9597 -34.55313,88.73009 l -10.11333,28.70402 -14.93573,1.34164 c -8.21466,0.7379 -14.94822,1.20268 -14.96347,1.03282 -0.0153,-0.16983 11.39656,-30.41718 25.35961,-67.21632 l 25.38734,-66.90751 -28.21805,2.53476 -28.21806,2.53476 -1.27129,-14.152564 -1.27129,-14.152559 31.72126,-2.849444 31.72125,-2.849443 -2.32339,-25.86502 -2.3234,-25.865019 15.1286,-1.358965 L 272.95534,20 l 2.32339,25.86502 2.32339,25.86502 32.20927,-2.893281 32.20927,-2.89328 1.27129,14.152557 1.27129,14.15256 -27.73682,2.49153 -27.73682,2.49153 37.34726,61.583534 37.34727,61.58351 -36.03315,3.23677 -36.03316,3.23677 2.54259,28.30513 2.54258,28.30511 -15.1286,1.35896 -15.1286,1.35897 z"
     id="path4147"
     inkscape:connector-curvature="0" />
  <path
     id="path4182"
     style="fill:#6e6e6e;fill-opacity:1"
     d="m 424.16059,218.708 c -27.1813,-1.49876 -44.76707,-14.4164 -52.87761,-38.84128 -3.11075,-9.36799 -13.44648,-112.482346 -11.42988,-114.029953 0.68899,-0.528752 9.85513,-1.741014 20.36919,-2.69392 l 19.11648,-1.732548 5.19758,54.001541 c 5.685,59.0657 5.94058,60.4385 12.45574,66.90568 2.92068,2.89918 11.69517,6.97992 14.47203,6.73048 1.30426,-0.11716 1.72292,2.04284 2.8691,14.80267 l 1.34201,14.93985 -2.74988,0.12458 c -1.51244,0.0685 -5.45658,-0.0247 -8.76475,-0.20708 z m 17.15452,-15.37278 -1.33206,-14.829 3.5987,-1.01549 c 9.99005,-2.81904 15.30624,-8.1038 17.50877,-17.4053 1.13481,-4.79245 0.79514,-11.45803 -3.01848,-59.23158 l -4.29718,-53.83142 20.22554,-2.088863 20.22554,-2.088873 4.4986,54.587406 c 4.27625,51.88934 4.4281,54.97567 3.0722,62.44307 -2.11458,11.64576 -5.10228,18.7566 -11.12429,26.4764 -7.88225,10.1045 -17.41633,15.35946 -35.66836,19.65962 -3.78539,0.89182 -8.11427,1.7411 -9.61973,1.88727 l -2.7372,0.26575 -1.33205,-14.829 z m 91.74796,2.63156 c -0.41075,-0.54804 -3.7158,-35.72777 -7.34458,-78.17717 l -6.59777,-77.180731 18.95978,-1.431271 18.95978,-1.431261 7.25588,77.913293 7.2559,77.91329 -18.8711,1.69515 c -12.21019,1.09681 -19.13469,1.34342 -19.61789,0.6987 z m 135.44311,-12.35804 c -0.31798,-0.6617 -2.51596,-21.51613 -4.88439,-46.34317 l -4.30623,-45.14007 -8.24104,24.68059 c -4.53259,13.57435 -10.20261,29.71378 -12.60015,35.86545 l -4.359,11.18485 -16.83053,1.51184 -16.83054,1.51185 -3.68233,-7.00334 c -2.02529,-3.85183 -8.85211,-15.79046 -14.56596,-26.85225 l -10.88367,-19.84892 -3.14898,-37.982362 -3.14897,-37.982346 14.26898,26.238121 c 15.29266,28.120507 35.21116,62.007937 36.38533,61.902467 0.39401,-0.0354 7.74525,-21.69553 16.33603,-48.133571 l 15.61961,-48.069201 13.54,-1.23735 c 7.44698,-0.680541 17.66873,-1.314681 22.71502,-1.409174 l 9.17502,-0.171804 6.96506,77.53806 6.96505,77.53806 -18.95498,1.70268 c -14.25142,1.28017 -19.09856,1.40414 -19.53333,0.49959 z M 26.966747,173.30499 20,95.748106 l 3.679506,-0.95286 c 2.023728,-0.52407 11.186336,-1.63214 20.36135,-2.462388 l 16.681845,-1.509534 7.023187,78.185206 7.023187,78.1852 -20.41779,1.83408 -20.41779,1.83408 -6.966747,-77.55689 z m 103.613293,35.74249 -2.95242,-32.86766 -25.89573,2.32615 -25.895733,2.32615 -1.386744,-15.43784 -1.386744,-15.43785 25.895732,-2.32615 25.895729,-2.32615 -2.62758,-29.25139 -2.62758,-29.25137 3.67951,-0.952856 c 2.02373,-0.52407 11.18633,-1.632148 20.36135,-2.462391 l 16.68184,-1.509534 7.02319,78.185211 7.02319,78.18519 -20.41779,1.83408 -20.41779,1.83408 z"
     inkscape:connector-curvature="0"
     sodipodi:nodetypes="cssscssssccccccssscccsssssccccscccccsccscsccccsscccssscsscccscccsscccccccccccccccccsscccccc" />
  <g
     inkscape:groupmode="layer"
     id="layer1"
     inkscape:label="Layer 1"
     style="display:none"
     transform="translate(-3.443718,-3.377026)">
    <path
       inkscape:connector-curvature="0"
       style="fill:#6e6e6e;fill-opacity:1"
       d="m 691.28764,278.7162 c 0,-4.2737 -2.9891,-9.27293 -8.1428,-13.6186 l -4.8572,-4.0956 v -7.97939 -7.97939 l 4.5032,0.61723 c 12.233,1.67672 20.7889,11.10648 24.0539,26.51064 2.0683,9.75806 2.5422,9.14398 -7.0571,9.14398 -8.4862,0 -8.5,-0.004 -8.5,-2.59887 z"
       id="path4180" />
    <path
       inkscape:connector-curvature="0"
       style="fill:#6e6e6e;fill-opacity:1"
       d="m 678.28764,352.39722 c 0,-7.84337 0.2491,-9.21943 1.75,-9.6684 4.5942,-1.37422 6.9321,-3.29259 9,-7.38495 1.8462,-3.65336 2.25,-6.09885 2.25,-13.62406 0,-10.47175 0.1,-10.36547 -9.75,-10.39109 l -5.25,-0.0136 v -7.5 -7.5 h 16 16 l -0.017,15.75 c -0.025,22.82332 -2.8231,34.02382 -10.3895,41.59025 -4.1514,4.15142 -8.4707,6.21893 -15.0549,7.20627 l -4.5382,0.68056 v -9.14493 z"
       id="path4178" />
    <path
       inkscape:connector-curvature="0"
       style="fill:#6e6e6e;fill-opacity:1"
       d="m 663.43574,359.414 c -2.9435,-1.02333 -6.5435,-2.74539 -8,-3.82679 -4.0264,-2.98957 -7.8575,-11.6298 -10.319,-23.27215 -1.9028,-8.99932 -2.2278,-13.71571 -2.2746,-32.99999 -0.058,-24.15919 0.7866,-30.7534 5.0133,-39.11974 1.2836,-2.54086 3.8185,-5.87318 5.6331,-7.40517 4.2687,-3.604 12.5431,-7.45287 16.0491,-7.46532 l 2.75,-0.01 v 8.41844 8.41844 l -3.5311,2.18233 c -7.2032,4.45184 -9.4827,14.41679 -9.448,41.30315 0.031,23.71964 2.0984,31.45538 9.5899,35.87549 l 3.4636,2.04356 -0.2872,8.61804 c -0.3314,9.94654 -0.4842,10.07454 -8.6391,7.23948 z"
       id="path4176" />
    <path
       inkscape:connector-curvature="0"
       style="fill:#6e6e6e;fill-opacity:1"
       d="m 600.77824,337.04277 c -7.82993,-21.05585 -9.30276,-24.26954 -11.25,-24.54725 -2.09835,-0.29927 -2.24069,-0.80706 -2.24239,-8 l -0.002,-7.68045 5.75182,0.29026 c 6.48468,0.32725 10.82084,-1.67729 13.94749,-6.44771 2.5244,-3.85156 2.51102,-16.42214 -0.0229,-21.5152 -2.1984,-4.41867 -3.11987,-4.83057 -12.42276,-5.55301 l -7.25,-0.56302 v -7.82047 c 1.7e-4,-9.39466 0.54297,-9.89085 10.82024,-9.89085 12.4109,0 21.2641,6.66346 26.1972,19.71769 2.8714,7.5987 3.1241,20.45699 0.5556,28.28231 -1.7635,5.37278 -7.1417,14.96704 -8.4271,15.03327 -0.3552,0.0183 -1.648,0.86963 -2.873,1.89184 l -2.2272,1.85857 2.3677,6.85816 c 1.3022,3.77199 5.3419,14.3403 8.9772,23.48514 3.6352,9.14485 6.6095,17.13235 6.6095,17.75 0,0.75542 -3.1914,1.11572 -9.75,1.10072 l -9.75,-0.0223 -9.0094,-24.22772 z"
       id="path4174" />
    <path
       inkscape:connector-curvature="0"
       style="fill:#6e6e6e;fill-opacity:1"
       d="m 564.28767,312.96869 c 0,-26.5905 0.29238,-52.4655 0.64974,-57.5 l 0.64975,-9.15362 h 7.85025 7.85026 v 57.5 57.49999 h -8.5 -8.5 z"
       id="path4172" />
    <path
       inkscape:connector-curvature="0"
       style="fill:#6e6e6e;fill-opacity:1"
       d="m 522.28767,352.99224 v -8.58293 l 4.08508,-3.28286 c 2.24679,-1.80557 4.68022,-4.70725 5.40762,-6.44817 4.7221,-11.30155 4.69171,-54.30456 -0.0448,-63.46405 -0.7632,-1.47588 -3.20119,-4.11977 -5.41775,-5.87532 l -4.0301,-3.1919 v -8.41597 c -5e-5,-7.91716 0.12603,-8.41597 2.12724,-8.41597 1.17,0 5.05795,1.44276 8.63987,3.20614 13.96299,6.87396 19.67399,22.30084 19.54417,52.79386 -0.0987,23.18034 -4.13476,40.05931 -12.05421,50.41102 -5.03876,6.58629 -8.14319,8.70909 -13.64288,9.32898 l -4.61424,0.52009 z"
       id="path4170" />
    <path
       inkscape:connector-curvature="0"
       style="fill:#6e6e6e;fill-opacity:1"
       d="m 506.6119,359.67752 c -2.29668,-0.8138 -6.20891,-3.26928 -8.69385,-5.45661 -9.41258,-8.28529 -13.00756,-22.07175 -13.0135,-49.90584 -0.006,-27.8331 3.16677,-41.89084 11.27906,-49.9755 4.92472,-4.90794 12.49375,-9.0245 16.59316,-9.0245 2.48394,0 2.5109,0.0911 2.5109,8.48581 v 8.48581 l -3.82198,2.52927 c -7.23229,4.7861 -9.24243,13.35141 -9.22594,39.31214 0.0152,23.92209 1.76578,31.71368 8.14597,36.25678 4.82962,3.43899 6.22651,7.79205 4.81035,14.99023 -1.29705,6.5928 -1.63803,6.76371 -8.58417,4.30241 z"
       id="path4168" />
    <path
       inkscape:connector-curvature="0"
       style="fill:#f09900;fill-opacity:1"
       d="m 453.28767,350.81506 v -10.5 h 8.5 8.5 v 10.5 10.5 h -8.5 -8.5 z"
       id="path3210" />
  </g>
  <g
     inkscape:groupmode="layer"
     id="layer2"
     inkscape:label="Layer 2"
     transform="translate(-3.443718,-3.377026)" />
  <text
     xml:space="preserve"
     style="font-weight:bold;font-size:31.7181px;line-height:1.25;font-family:sans-serif;-inkscape-font-specification:'sans-serif Bold';letter-spacing:0px;word-spacing:0px;stroke-width:1;font-variation-settings:normal;opacity:1;vector-effect:none;fill:#6e6e6e;fill-opacity:1;stroke-linecap:butt;stroke-linejoin:miter;stroke-miterlimit:4;stroke-dasharray:none;stroke-dashoffset:0;stroke-opacity:1;-inkscape-stroke:none;stop-color:#000000;stop-opacity:1"
     x="311.58267"
     y="267.39346"
     id="text2245"><tspan
       sodipodi:role="line"
       id="tspan2243"
       x="311.58267"
       y="267.39346"
       style="stroke-width:1;font-variation-settings:normal;vector-effect:none;fill:#6e6e6e;fill-opacity:1;stroke-linecap:butt;stroke-linejoin:miter;stroke-miterlimit:4;stroke-dasharray:none;stroke-dashoffset:0;stroke-opacity:1;-inkscape-stroke:none;stop-color:#000000;stop-opacity:1">Hackerspace AU Mans</tspan></text>
</svg>
